STARTFONT 2.1
COMMENT
COMMENT Converted from OpenType font "BeVietnam-Bold.ttf" by "otf2bdf 3.0".
COMMENT
FONT -FreeType-Be Vietnam-Bold-R-Normal--14-100-100-100-P-70-ISO10646-1
SIZE 10 100 100
FONTBOUNDINGBOX 21 20 -6 -4
STARTPROPERTIES 19
FOUNDRY "FreeType"
FAMILY_NAME "Be Vietnam"
WEIGHT_NAME "Bold"
SLANT "R"
SETWIDTH_NAME "Normal"
ADD_STYLE_NAME ""
PIXEL_SIZE 14
POINT_SIZE 100
RESOLUTION_X 100
RESOLUTION_Y 100
SPACING "P"
AVERAGE_WIDTH 70
CHARSET_REGISTRY "ISO10646"
CHARSET_ENCODING "1"
FONT_ASCENT 16
FONT_DESCENT 3
COPYRIGHT "Copyright 2019 The Bevietnam Project Authors (https://github.com/bettergui/beVietnam)"
_OTF_FONTFILE "BeVietnam-Bold.ttf"
_OTF_PSNAME "BeVietnam-Bold"
ENDPROPERTIES
CHARS 445
STARTCHAR 000D
ENCODING 13
SWIDTH 576 0
DWIDTH 8 0
BBX 0 0 0 0
BITMAP
ENDCHAR
STARTCHAR 0020
ENCODING 32
SWIDTH 216 0
DWIDTH 3 0
BBX 0 0 0 0
BITMAP
ENDCHAR
STARTCHAR 0021
ENCODING 33
SWIDTH 216 0
DWIDTH 3 0
BBX 2 10 1 0
BITMAP
C0
C0
C0
C0
C0
C0
C0
00
C0
C0
ENDCHAR
STARTCHAR 0022
ENCODING 34
SWIDTH 504 0
DWIDTH 7 0
BBX 5 4 1 7
BITMAP
48
90
D8
D8
ENDCHAR
STARTCHAR 0023
ENCODING 35
SWIDTH 864 0
DWIDTH 12 0
BBX 10 10 1 0
BITMAP
0980
1980
1900
7FC0
1300
1300
FF80
FF80
3200
2600
ENDCHAR
STARTCHAR 0024
ENCODING 36
SWIDTH 576 0
DWIDTH 8 0
BBX 7 12 1 -1
BITMAP
10
30
FC
DE
D0
F0
7C
16
D6
FE
7C
10
ENDCHAR
STARTCHAR 0025
ENCODING 37
SWIDTH 792 0
DWIDTH 11 0
BBX 10 10 1 0
BITMAP
E300
A200
A600
E400
0C00
0800
1B80
1280
32C0
6380
ENDCHAR
STARTCHAR 0026
ENCODING 38
SWIDTH 648 0
DWIDTH 9 0
BBX 8 10 1 0
BITMAP
38
7C
66
60
70
76
DC
8C
FE
F3
ENDCHAR
STARTCHAR 0027
ENCODING 39
SWIDTH 288 0
DWIDTH 4 0
BBX 2 3 1 7
BITMAP
C0
40
40
ENDCHAR
STARTCHAR 0028
ENCODING 40
SWIDTH 432 0
DWIDTH 6 0
BBX 5 14 1 -3
BITMAP
10
30
20
60
60
40
C0
C0
40
60
60
20
30
18
ENDCHAR
STARTCHAR 0029
ENCODING 41
SWIDTH 504 0
DWIDTH 7 0
BBX 4 14 2 -3
BITMAP
C0
60
60
30
30
30
30
30
30
30
20
60
40
80
ENDCHAR
STARTCHAR 002A
ENCODING 42
SWIDTH 504 0
DWIDTH 7 0
BBX 4 5 2 6
BITMAP
40
50
E0
F0
50
ENDCHAR
STARTCHAR 002B
ENCODING 43
SWIDTH 576 0
DWIDTH 8 0
BBX 6 6 1 1
BITMAP
30
30
FC
30
30
30
ENDCHAR
STARTCHAR 002C
ENCODING 44
SWIDTH 288 0
DWIDTH 4 0
BBX 2 4 1 -3
BITMAP
C0
C0
40
40
ENDCHAR
STARTCHAR 002D
ENCODING 45
SWIDTH 576 0
DWIDTH 8 0
BBX 5 1 2 4
BITMAP
F8
ENDCHAR
STARTCHAR 002E
ENCODING 46
SWIDTH 288 0
DWIDTH 4 0
BBX 2 2 1 0
BITMAP
C0
C0
ENDCHAR
STARTCHAR 002F
ENCODING 47
SWIDTH 504 0
DWIDTH 7 0
BBX 6 14 1 -3
BITMAP
0C
0C
18
18
10
30
30
20
60
60
40
C0
C0
80
ENDCHAR
STARTCHAR 0030
ENCODING 48
SWIDTH 576 0
DWIDTH 8 0
BBX 7 10 1 0
BITMAP
78
FC
C6
C6
C6
C6
C6
C6
EC
7C
ENDCHAR
STARTCHAR 0031
ENCODING 49
SWIDTH 504 0
DWIDTH 7 0
BBX 6 10 1 0
BITMAP
30
70
F0
B0
30
30
30
30
FC
FC
ENDCHAR
STARTCHAR 0032
ENCODING 50
SWIDTH 576 0
DWIDTH 8 0
BBX 7 10 1 0
BITMAP
78
FC
CC
C4
0C
18
30
60
FE
FE
ENDCHAR
STARTCHAR 0033
ENCODING 51
SWIDTH 576 0
DWIDTH 8 0
BBX 7 10 1 0
BITMAP
78
FC
C4
0C
3C
3C
06
C6
FC
78
ENDCHAR
STARTCHAR 0034
ENCODING 52
SWIDTH 576 0
DWIDTH 8 0
BBX 8 10 0 0
BITMAP
0E
1E
1E
36
36
66
FF
FF
06
06
ENDCHAR
STARTCHAR 0035
ENCODING 53
SWIDTH 576 0
DWIDTH 8 0
BBX 7 10 1 0
BITMAP
FC
FC
C0
C0
FC
CE
06
C6
FC
78
ENDCHAR
STARTCHAR 0036
ENCODING 54
SWIDTH 576 0
DWIDTH 8 0
BBX 7 10 1 0
BITMAP
30
30
60
40
FC
CC
86
C6
EC
78
ENDCHAR
STARTCHAR 0037
ENCODING 55
SWIDTH 504 0
DWIDTH 7 0
BBX 7 10 0 0
BITMAP
FE
FE
06
0C
0C
18
18
30
30
70
ENDCHAR
STARTCHAR 0038
ENCODING 56
SWIDTH 576 0
DWIDTH 8 0
BBX 7 10 1 0
BITMAP
78
FC
C6
C6
7C
FC
C6
C6
EE
7C
ENDCHAR
STARTCHAR 0039
ENCODING 57
SWIDTH 576 0
DWIDTH 8 0
BBX 7 10 1 0
BITMAP
78
FC
C6
86
CE
FC
2C
18
18
30
ENDCHAR
STARTCHAR 003A
ENCODING 58
SWIDTH 288 0
DWIDTH 4 0
BBX 2 7 1 0
BITMAP
C0
C0
00
00
00
C0
C0
ENDCHAR
STARTCHAR 003B
ENCODING 59
SWIDTH 288 0
DWIDTH 4 0
BBX 3 9 1 -3
BITMAP
E0
40
00
00
00
40
E0
20
40
ENDCHAR
STARTCHAR 003C
ENCODING 60
SWIDTH 576 0
DWIDTH 8 0
BBX 6 7 1 1
BITMAP
04
1C
70
C0
70
1C
04
ENDCHAR
STARTCHAR 003D
ENCODING 61
SWIDTH 648 0
DWIDTH 9 0
BBX 6 5 2 2
BITMAP
FC
FC
00
00
FC
ENDCHAR
STARTCHAR 003E
ENCODING 62
SWIDTH 576 0
DWIDTH 8 0
BBX 6 7 1 1
BITMAP
80
E0
38
0C
38
E0
80
ENDCHAR
STARTCHAR 003F
ENCODING 63
SWIDTH 576 0
DWIDTH 8 0
BBX 6 10 1 0
BITMAP
78
FC
CC
CC
0C
18
30
00
30
30
ENDCHAR
STARTCHAR 0040
ENCODING 64
SWIDTH 1008 0
DWIDTH 14 0
BBX 12 12 1 -2
BITMAP
0F00
3FC0
6060
4DB0
DF90
9990
9990
D9B0
CEE0
6000
3000
1F80
ENDCHAR
STARTCHAR 0041
ENCODING 65
SWIDTH 648 0
DWIDTH 9 0
BBX 9 10 0 0
BITMAP
0C00
1C00
1C00
1600
3600
3200
3F00
7F00
6180
C180
ENDCHAR
STARTCHAR 0042
ENCODING 66
SWIDTH 576 0
DWIDTH 8 0
BBX 7 10 1 0
BITMAP
F8
FC
C6
C6
FC
FC
C6
C6
FE
FC
ENDCHAR
STARTCHAR 0043
ENCODING 67
SWIDTH 648 0
DWIDTH 9 0
BBX 8 10 1 0
BITMAP
3C
7E
C3
C3
C0
C0
C0
C3
7E
3C
ENDCHAR
STARTCHAR 0044
ENCODING 68
SWIDTH 648 0
DWIDTH 9 0
BBX 8 10 1 0
BITMAP
F8
FE
C6
C3
C3
C3
C3
C6
FE
FC
ENDCHAR
STARTCHAR 0045
ENCODING 69
SWIDTH 504 0
DWIDTH 7 0
BBX 6 10 1 0
BITMAP
FC
FC
C0
C0
FC
FC
C0
C0
FC
FC
ENDCHAR
STARTCHAR 0046
ENCODING 70
SWIDTH 504 0
DWIDTH 7 0
BBX 6 10 1 0
BITMAP
FC
FC
C0
C0
F8
F8
C0
C0
C0
C0
ENDCHAR
STARTCHAR 0047
ENCODING 71
SWIDTH 648 0
DWIDTH 9 0
BBX 8 10 1 0
BITMAP
3C
7E
C3
C0
C0
CF
C3
C3
77
3D
ENDCHAR
STARTCHAR 0048
ENCODING 72
SWIDTH 648 0
DWIDTH 9 0
BBX 8 10 1 0
BITMAP
C3
C3
C3
C3
FF
FF
C3
C3
C3
C3
ENDCHAR
STARTCHAR 0049
ENCODING 73
SWIDTH 216 0
DWIDTH 3 0
BBX 2 10 1 0
BITMAP
C0
C0
C0
C0
C0
C0
C0
C0
C0
C0
ENDCHAR
STARTCHAR 004A
ENCODING 74
SWIDTH 360 0
DWIDTH 5 0
BBX 3 10 1 0
BITMAP
60
60
60
60
60
60
60
60
60
E0
ENDCHAR
STARTCHAR 004B
ENCODING 75
SWIDTH 648 0
DWIDTH 9 0
BBX 7 10 1 0
BITMAP
C6
CC
D8
F8
F0
F8
D8
CC
CC
C6
ENDCHAR
STARTCHAR 004C
ENCODING 76
SWIDTH 504 0
DWIDTH 7 0
BBX 6 10 1 0
BITMAP
C0
C0
C0
C0
C0
C0
C0
C0
FC
FC
ENDCHAR
STARTCHAR 004D
ENCODING 77
SWIDTH 792 0
DWIDTH 11 0
BBX 10 10 1 0
BITMAP
E1C0
E1C0
E3C0
F3C0
F6C0
DEC0
DEC0
DCC0
CCC0
CCC0
ENDCHAR
STARTCHAR 004E
ENCODING 78
SWIDTH 648 0
DWIDTH 9 0
BBX 8 10 1 0
BITMAP
C3
E3
E3
F3
FB
DB
CF
CF
C7
C7
ENDCHAR
STARTCHAR 004F
ENCODING 79
SWIDTH 720 0
DWIDTH 10 0
BBX 8 10 1 0
BITMAP
3C
7E
C3
C3
C3
C3
C3
C3
7E
3C
ENDCHAR
STARTCHAR 0050
ENCODING 80
SWIDTH 576 0
DWIDTH 8 0
BBX 7 10 1 0
BITMAP
F8
FC
C6
C6
C6
FC
F8
C0
C0
C0
ENDCHAR
STARTCHAR 0051
ENCODING 81
SWIDTH 720 0
DWIDTH 10 0
BBX 8 11 1 -1
BITMAP
3C
7E
C3
C3
C3
C3
DB
CF
7E
3E
03
ENDCHAR
STARTCHAR 0052
ENCODING 82
SWIDTH 576 0
DWIDTH 8 0
BBX 7 10 1 0
BITMAP
F8
FC
C6
C6
C6
FC
D8
CC
CC
C6
ENDCHAR
STARTCHAR 0053
ENCODING 83
SWIDTH 576 0
DWIDTH 8 0
BBX 7 10 1 0
BITMAP
78
FC
CE
C0
F8
3C
06
C6
FE
7C
ENDCHAR
STARTCHAR 0054
ENCODING 84
SWIDTH 576 0
DWIDTH 8 0
BBX 7 10 1 0
BITMAP
FE
FE
30
30
30
30
30
30
30
30
ENDCHAR
STARTCHAR 0055
ENCODING 85
SWIDTH 648 0
DWIDTH 9 0
BBX 8 10 1 0
BITMAP
C3
C3
C3
C3
C3
C3
C3
C7
FE
7C
ENDCHAR
STARTCHAR 0056
ENCODING 86
SWIDTH 648 0
DWIDTH 9 0
BBX 9 10 0 0
BITMAP
C180
4180
6300
6300
2300
3600
3600
3600
1C00
1C00
ENDCHAR
STARTCHAR 0057
ENCODING 87
SWIDTH 936 0
DWIDTH 13 0
BBX 14 10 0 0
BITMAP
C30C
C318
6718
6798
6798
6D90
3CF0
3CF0
38F0
1860
ENDCHAR
STARTCHAR 0058
ENCODING 88
SWIDTH 648 0
DWIDTH 9 0
BBX 8 10 1 0
BITMAP
C3
C6
66
6C
38
38
3C
6C
C6
C3
ENDCHAR
STARTCHAR 0059
ENCODING 89
SWIDTH 576 0
DWIDTH 8 0
BBX 9 10 0 0
BITMAP
C180
6300
6300
3600
3600
1C00
1C00
0800
0800
0800
ENDCHAR
STARTCHAR 005A
ENCODING 90
SWIDTH 576 0
DWIDTH 8 0
BBX 7 10 1 0
BITMAP
FE
FE
0E
1C
18
30
60
C0
FE
FE
ENDCHAR
STARTCHAR 005B
ENCODING 91
SWIDTH 432 0
DWIDTH 6 0
BBX 5 15 1 -3
BITMAP
F8
F8
C0
C0
C0
C0
C0
C0
C0
C0
C0
C0
C0
F8
F8
ENDCHAR
STARTCHAR 005C
ENCODING 92
SWIDTH 504 0
DWIDTH 7 0
BBX 6 14 1 -3
BITMAP
80
C0
C0
40
60
60
20
30
30
18
18
18
0C
0C
ENDCHAR
STARTCHAR 005D
ENCODING 93
SWIDTH 432 0
DWIDTH 6 0
BBX 4 15 1 -3
BITMAP
F0
F0
10
10
10
10
10
10
10
10
10
10
10
F0
F0
ENDCHAR
STARTCHAR 005E
ENCODING 94
SWIDTH 360 0
DWIDTH 5 0
BBX 5 3 0 8
BITMAP
30
78
D8
ENDCHAR
STARTCHAR 005F
ENCODING 95
SWIDTH 648 0
DWIDTH 9 0
BBX 7 2 1 0
BITMAP
FE
FE
ENDCHAR
STARTCHAR 0060
ENCODING 96
SWIDTH 288 0
DWIDTH 4 0
BBX 2 2 1 9
BITMAP
C0
40
ENDCHAR
STARTCHAR 0061
ENCODING 97
SWIDTH 576 0
DWIDTH 8 0
BBX 7 8 1 0
BITMAP
20
F6
CE
C6
86
C6
EE
76
ENDCHAR
STARTCHAR 0062
ENCODING 98
SWIDTH 576 0
DWIDTH 8 0
BBX 7 10 1 0
BITMAP
C0
C0
C0
FC
CE
C6
C6
C6
EE
FC
ENDCHAR
STARTCHAR 0063
ENCODING 99
SWIDTH 504 0
DWIDTH 7 0
BBX 6 7 1 1
BITMAP
7C
CC
C0
80
CC
EC
78
ENDCHAR
STARTCHAR 0064
ENCODING 100
SWIDTH 576 0
DWIDTH 8 0
BBX 7 10 1 0
BITMAP
06
06
26
FE
CE
C6
C6
C6
EE
76
ENDCHAR
STARTCHAR 0065
ENCODING 101
SWIDTH 576 0
DWIDTH 8 0
BBX 6 7 1 1
BITMAP
7C
CC
84
FC
C0
EC
78
ENDCHAR
STARTCHAR 0066
ENCODING 102
SWIDTH 360 0
DWIDTH 5 0
BBX 4 10 1 0
BITMAP
70
C0
C0
F0
C0
C0
C0
C0
C0
C0
ENDCHAR
STARTCHAR 0067
ENCODING 103
SWIDTH 576 0
DWIDTH 8 0
BBX 7 11 1 -3
BITMAP
20
F6
CE
C6
C6
C6
FE
76
06
3C
38
ENDCHAR
STARTCHAR 0068
ENCODING 104
SWIDTH 576 0
DWIDTH 8 0
BBX 7 10 1 0
BITMAP
C0
C0
C0
FC
CC
C6
C6
C6
C6
C6
ENDCHAR
STARTCHAR 0069
ENCODING 105
SWIDTH 216 0
DWIDTH 3 0
BBX 2 11 1 0
BITMAP
C0
C0
00
00
C0
C0
C0
C0
C0
C0
C0
ENDCHAR
STARTCHAR 006A
ENCODING 106
SWIDTH 216 0
DWIDTH 3 0
BBX 4 14 -1 -3
BITMAP
30
30
00
30
30
30
30
30
30
30
30
30
30
E0
ENDCHAR
STARTCHAR 006B
ENCODING 107
SWIDTH 504 0
DWIDTH 7 0
BBX 6 10 1 0
BITMAP
C0
C0
C0
DC
D8
F0
F0
D8
D8
CC
ENDCHAR
STARTCHAR 006C
ENCODING 108
SWIDTH 288 0
DWIDTH 4 0
BBX 3 10 1 0
BITMAP
C0
C0
C0
C0
C0
C0
C0
C0
C0
E0
ENDCHAR
STARTCHAR 006D
ENCODING 109
SWIDTH 864 0
DWIDTH 12 0
BBX 11 8 1 0
BITMAP
0080
FFC0
CE60
CC60
CC60
CC60
CC60
CC60
ENDCHAR
STARTCHAR 006E
ENCODING 110
SWIDTH 576 0
DWIDTH 8 0
BBX 7 7 1 1
BITMAP
FC
CC
C6
C6
C6
C6
C6
ENDCHAR
STARTCHAR 006F
ENCODING 111
SWIDTH 576 0
DWIDTH 8 0
BBX 7 7 1 1
BITMAP
7C
CC
C6
86
CC
EC
78
ENDCHAR
STARTCHAR 0070
ENCODING 112
SWIDTH 576 0
DWIDTH 8 0
BBX 7 10 1 -2
BITMAP
FC
CE
C6
C6
C6
EE
FC
C0
C0
C0
ENDCHAR
STARTCHAR 0071
ENCODING 113
SWIDTH 576 0
DWIDTH 8 0
BBX 7 11 1 -3
BITMAP
20
FE
CE
C6
C6
C6
EE
76
06
06
06
ENDCHAR
STARTCHAR 0072
ENCODING 114
SWIDTH 360 0
DWIDTH 5 0
BBX 4 7 1 0
BITMAP
F0
E0
C0
C0
C0
C0
C0
ENDCHAR
STARTCHAR 0073
ENCODING 115
SWIDTH 432 0
DWIDTH 6 0
BBX 5 8 1 0
BITMAP
20
F8
98
E0
78
08
D8
F8
ENDCHAR
STARTCHAR 0074
ENCODING 116
SWIDTH 360 0
DWIDTH 5 0
BBX 5 10 0 0
BITMAP
30
30
30
F8
30
30
30
30
30
38
ENDCHAR
STARTCHAR 0075
ENCODING 117
SWIDTH 576 0
DWIDTH 8 0
BBX 6 7 1 0
BITMAP
C4
C4
C4
C4
CC
FC
74
ENDCHAR
STARTCHAR 0076
ENCODING 118
SWIDTH 504 0
DWIDTH 7 0
BBX 6 7 1 0
BITMAP
8C
CC
CC
58
78
78
30
ENDCHAR
STARTCHAR 0077
ENCODING 119
SWIDTH 792 0
DWIDTH 11 0
BBX 11 7 0 0
BITMAP
C660
4E60
6E40
6BC0
2BC0
39C0
3980
ENDCHAR
STARTCHAR 0078
ENCODING 120
SWIDTH 504 0
DWIDTH 7 0
BBX 6 7 1 0
BITMAP
CC
D8
78
70
78
D8
CC
ENDCHAR
STARTCHAR 0079
ENCODING 121
SWIDTH 504 0
DWIDTH 7 0
BBX 6 10 1 -3
BITMAP
8C
CC
C8
58
78
70
30
20
60
C0
ENDCHAR
STARTCHAR 007A
ENCODING 122
SWIDTH 432 0
DWIDTH 6 0
BBX 5 7 1 0
BITMAP
F8
18
30
60
60
F8
F8
ENDCHAR
STARTCHAR 007B
ENCODING 123
SWIDTH 432 0
DWIDTH 6 0
BBX 4 15 1 -3
BITMAP
30
70
60
60
60
60
60
C0
60
60
60
60
60
60
30
ENDCHAR
STARTCHAR 007C
ENCODING 124
SWIDTH 288 0
DWIDTH 4 0
BBX 2 17 1 -4
BITMAP
C0
C0
C0
C0
C0
C0
C0
C0
C0
C0
C0
C0
C0
C0
C0
C0
C0
ENDCHAR
STARTCHAR 007D
ENCODING 125
SWIDTH 432 0
DWIDTH 6 0
BBX 5 15 1 -3
BITMAP
C0
E0
20
20
20
20
20
38
30
20
20
20
20
20
E0
ENDCHAR
STARTCHAR 007E
ENCODING 126
SWIDTH 576 0
DWIDTH 8 0
BBX 6 2 1 4
BITMAP
7C
C8
ENDCHAR
STARTCHAR 00A0
ENCODING 160
SWIDTH 216 0
DWIDTH 3 0
BBX 0 0 0 0
BITMAP
ENDCHAR
STARTCHAR 00A1
ENCODING 161
SWIDTH 216 0
DWIDTH 3 0
BBX 2 10 1 -3
BITMAP
C0
C0
00
00
C0
C0
C0
C0
C0
C0
ENDCHAR
STARTCHAR 00A2
ENCODING 162
SWIDTH 576 0
DWIDTH 8 0
BBX 6 8 1 -1
BITMAP
10
7C
EC
E0
A0
EC
EC
78
ENDCHAR
STARTCHAR 00A3
ENCODING 163
SWIDTH 576 0
DWIDTH 8 0
BBX 7 10 1 0
BITMAP
78
FC
C6
C0
E0
F8
20
60
FE
FE
ENDCHAR
STARTCHAR 00A4
ENCODING 164
SWIDTH 576 0
DWIDTH 8 0
BBX 7 8 1 1
BITMAP
80
FE
C4
86
86
C4
FE
92
ENDCHAR
STARTCHAR 00A5
ENCODING 165
SWIDTH 648 0
DWIDTH 9 0
BBX 9 10 0 0
BITMAP
C180
6300
6300
3600
3600
1C00
3E00
0800
3E00
0800
ENDCHAR
STARTCHAR 00A6
ENCODING 166
SWIDTH 288 0
DWIDTH 4 0
BBX 2 17 1 -4
BITMAP
C0
C0
C0
C0
C0
C0
C0
00
00
00
C0
C0
C0
C0
C0
C0
C0
ENDCHAR
STARTCHAR 00A7
ENCODING 167
SWIDTH 504 0
DWIDTH 7 0
BBX 6 10 1 0
BITMAP
78
DC
C0
F8
9C
CC
7C
0C
CC
78
ENDCHAR
STARTCHAR 00A8
ENCODING 168
SWIDTH 432 0
DWIDTH 6 0
BBX 5 2 1 9
BITMAP
98
D8
ENDCHAR
STARTCHAR 00A9
ENCODING 169
SWIDTH 792 0
DWIDTH 11 0
BBX 10 10 1 0
BITMAP
1E00
6300
C880
B680
A2C0
A0C0
B280
9C80
6100
3E00
ENDCHAR
STARTCHAR 00AA
ENCODING 170
SWIDTH 144 0
DWIDTH 2 0
BBX 2 2 0 5
BITMAP
C0
C0
ENDCHAR
STARTCHAR 00AB
ENCODING 171
SWIDTH 648 0
DWIDTH 9 0
BBX 8 6 1 1
BITMAP
33
46
CC
CC
66
33
ENDCHAR
STARTCHAR 00AC
ENCODING 172
SWIDTH 648 0
DWIDTH 9 0
BBX 7 3 1 4
BITMAP
FE
06
06
ENDCHAR
STARTCHAR 00AD
ENCODING 173
SWIDTH 576 0
DWIDTH 8 0
BBX 5 1 2 4
BITMAP
F8
ENDCHAR
STARTCHAR 00AE
ENCODING 174
SWIDTH 288 0
DWIDTH 4 0
BBX 3 4 1 6
BITMAP
C0
E0
A0
C0
ENDCHAR
STARTCHAR 00AF
ENCODING 175
SWIDTH 360 0
DWIDTH 5 0
BBX 5 1 0 9
BITMAP
F8
ENDCHAR
STARTCHAR 00B0
ENCODING 176
SWIDTH 288 0
DWIDTH 4 0
BBX 3 3 1 9
BITMAP
E0
A0
C0
ENDCHAR
STARTCHAR 00B1
ENCODING 177
SWIDTH 576 0
DWIDTH 8 0
BBX 6 8 1 0
BITMAP
30
30
FC
30
30
30
00
FC
ENDCHAR
STARTCHAR 00B2
ENCODING 178
SWIDTH 288 0
DWIDTH 4 0
BBX 4 6 0 5
BITMAP
60
D0
10
20
C0
F0
ENDCHAR
STARTCHAR 00B3
ENCODING 179
SWIDTH 288 0
DWIDTH 4 0
BBX 4 6 0 5
BITMAP
60
50
10
30
D0
60
ENDCHAR
STARTCHAR 00B4
ENCODING 180
SWIDTH 288 0
DWIDTH 4 0
BBX 2 2 1 9
BITMAP
C0
C0
ENDCHAR
STARTCHAR 00B5
ENCODING 181
SWIDTH 648 0
DWIDTH 9 0
BBX 8 10 1 -3
BITMAP
CC
CC
CC
CC
CC
DC
F7
C0
C0
C0
ENDCHAR
STARTCHAR 00B6
ENCODING 182
SWIDTH 504 0
DWIDTH 7 0
BBX 7 10 0 0
BITMAP
3E
7E
FA
FA
7A
3A
0A
0A
0A
0A
ENDCHAR
STARTCHAR 00B7
ENCODING 183
SWIDTH 288 0
DWIDTH 4 0
BBX 2 2 1 4
BITMAP
C0
C0
ENDCHAR
STARTCHAR 00B8
ENCODING 184
SWIDTH 216 0
DWIDTH 3 0
BBX 2 3 1 -3
BITMAP
80
40
C0
ENDCHAR
STARTCHAR 00B9
ENCODING 185
SWIDTH 216 0
DWIDTH 3 0
BBX 4 6 0 5
BITMAP
60
E0
E0
60
60
F0
ENDCHAR
STARTCHAR 00BA
ENCODING 186
SWIDTH 144 0
DWIDTH 2 0
BBX 2 2 0 5
BITMAP
C0
40
ENDCHAR
STARTCHAR 00BB
ENCODING 187
SWIDTH 648 0
DWIDTH 9 0
BBX 8 6 1 1
BITMAP
CC
66
33
62
46
CC
ENDCHAR
STARTCHAR 00BC
ENCODING 188
SWIDTH 792 0
DWIDTH 11 0
BBX 11 10 0 0
BITMAP
60C0
E180
A180
2300
F200
0660
04E0
0CE0
19E0
1060
ENDCHAR
STARTCHAR 00BD
ENCODING 189
SWIDTH 864 0
DWIDTH 12 0
BBX 12 10 0 0
BITMAP
60C0
E0C0
A180
2100
F300
0660
06D0
0C30
0840
18F0
ENDCHAR
STARTCHAR 00BE
ENCODING 190
SWIDTH 792 0
DWIDTH 11 0
BBX 10 10 1 0
BITMAP
E180
A100
6300
2600
E600
0CC0
0940
1940
33C0
3040
ENDCHAR
STARTCHAR 00BF
ENCODING 191
SWIDTH 576 0
DWIDTH 8 0
BBX 6 10 1 -3
BITMAP
10
30
00
30
30
60
C0
CC
CC
F8
ENDCHAR
STARTCHAR 00C0
ENCODING 192
SWIDTH 648 0
DWIDTH 9 0
BBX 9 13 0 0
BITMAP
1800
1800
0000
0C00
1C00
1C00
1600
3600
3200
3F00
7F00
6180
C180
ENDCHAR
STARTCHAR 00C1
ENCODING 193
SWIDTH 648 0
DWIDTH 9 0
BBX 9 13 0 0
BITMAP
0600
0C00
0000
0C00
1C00
1C00
1600
3600
3200
3F00
7F00
6180
C180
ENDCHAR
STARTCHAR 00C2
ENCODING 194
SWIDTH 648 0
DWIDTH 9 0
BBX 9 13 0 0
BITMAP
0C00
1E00
0000
0C00
1C00
1C00
1600
3600
3200
3F00
7F00
6180
C180
ENDCHAR
STARTCHAR 00C3
ENCODING 195
SWIDTH 648 0
DWIDTH 9 0
BBX 9 13 0 0
BITMAP
1A00
1E00
0000
0C00
1C00
1C00
1600
3600
3200
3F00
7F00
6180
C180
ENDCHAR
STARTCHAR 00C4
ENCODING 196
SWIDTH 648 0
DWIDTH 9 0
BBX 9 13 0 0
BITMAP
3300
3200
0000
0C00
1C00
1C00
1600
3600
3200
3F00
7F00
6180
C180
ENDCHAR
STARTCHAR 00C5
ENCODING 197
SWIDTH 648 0
DWIDTH 9 0
BBX 9 13 0 0
BITMAP
1C00
1C00
0000
0C00
1C00
1C00
1600
3600
3200
3F00
7F00
6180
C180
ENDCHAR
STARTCHAR 00C6
ENCODING 198
SWIDTH 936 0
DWIDTH 13 0
BBX 13 10 0 0
BITMAP
07F8
0FF8
0F00
1B00
1BF0
33F0
3F00
7F00
63F8
C3F8
ENDCHAR
STARTCHAR 00C7
ENCODING 199
SWIDTH 648 0
DWIDTH 9 0
BBX 8 13 1 -3
BITMAP
3C
7E
C3
C3
C0
C0
C0
C3
7E
3C
10
0C
1C
ENDCHAR
STARTCHAR 00C8
ENCODING 200
SWIDTH 504 0
DWIDTH 7 0
BBX 6 13 1 0
BITMAP
60
20
00
FC
FC
C0
C0
FC
FC
C0
C0
FC
FC
ENDCHAR
STARTCHAR 00C9
ENCODING 201
SWIDTH 504 0
DWIDTH 7 0
BBX 6 13 1 0
BITMAP
18
10
00
FC
FC
C0
C0
FC
FC
C0
C0
FC
FC
ENDCHAR
STARTCHAR 00CA
ENCODING 202
SWIDTH 504 0
DWIDTH 7 0
BBX 6 13 1 0
BITMAP
30
78
00
FC
FC
C0
C0
FC
FC
C0
C0
FC
FC
ENDCHAR
STARTCHAR 00CB
ENCODING 203
SWIDTH 504 0
DWIDTH 7 0
BBX 6 13 1 0
BITMAP
CC
CC
00
FC
FC
C0
C0
FC
FC
C0
C0
FC
FC
ENDCHAR
STARTCHAR 00CC
ENCODING 204
SWIDTH 216 0
DWIDTH 3 0
BBX 3 13 0 0
BITMAP
C0
40
00
60
60
60
60
60
60
60
60
60
60
ENDCHAR
STARTCHAR 00CD
ENCODING 205
SWIDTH 216 0
DWIDTH 3 0
BBX 3 13 1 0
BITMAP
60
C0
00
C0
C0
C0
C0
C0
C0
C0
C0
C0
C0
ENDCHAR
STARTCHAR 00CE
ENCODING 206
SWIDTH 216 0
DWIDTH 3 0
BBX 4 13 0 0
BITMAP
60
F0
00
60
60
60
60
60
60
60
60
60
60
ENDCHAR
STARTCHAR 00CF
ENCODING 207
SWIDTH 216 0
DWIDTH 3 0
BBX 6 13 -1 0
BITMAP
CC
CC
00
30
30
30
30
30
30
30
30
30
30
ENDCHAR
STARTCHAR 00D0
ENCODING 208
SWIDTH 648 0
DWIDTH 9 0
BBX 9 10 0 0
BITMAP
7C00
7F00
6380
6180
F980
F980
6180
6180
7F00
7E00
ENDCHAR
STARTCHAR 00D1
ENCODING 209
SWIDTH 648 0
DWIDTH 9 0
BBX 8 13 1 0
BITMAP
34
3C
00
C3
E3
E3
F3
FB
DB
CF
CF
C7
C7
ENDCHAR
STARTCHAR 00D2
ENCODING 210
SWIDTH 720 0
DWIDTH 10 0
BBX 8 13 1 0
BITMAP
30
10
00
3C
7E
C3
C3
C3
C3
C3
C3
7E
3C
ENDCHAR
STARTCHAR 00D3
ENCODING 211
SWIDTH 720 0
DWIDTH 10 0
BBX 8 13 1 0
BITMAP
0C
08
00
3C
7E
C3
C3
C3
C3
C3
C3
7E
3C
ENDCHAR
STARTCHAR 00D4
ENCODING 212
SWIDTH 720 0
DWIDTH 10 0
BBX 8 13 1 0
BITMAP
18
3C
00
3C
7E
C3
C3
C3
C3
C3
C3
7E
3C
ENDCHAR
STARTCHAR 00D5
ENCODING 213
SWIDTH 720 0
DWIDTH 10 0
BBX 8 13 1 0
BITMAP
34
3C
00
3C
7E
C3
C3
C3
C3
C3
C3
7E
3C
ENDCHAR
STARTCHAR 00D6
ENCODING 214
SWIDTH 720 0
DWIDTH 10 0
BBX 8 13 1 0
BITMAP
66
66
00
3C
7E
C3
C3
C3
C3
C3
C3
7E
3C
ENDCHAR
STARTCHAR 00D7
ENCODING 215
SWIDTH 576 0
DWIDTH 8 0
BBX 4 5 2 2
BITMAP
90
F0
60
F0
90
ENDCHAR
STARTCHAR 00D8
ENCODING 216
SWIDTH 720 0
DWIDTH 10 0
BBX 9 11 1 -1
BITMAP
3F00
7E00
E700
CF00
C980
D980
F300
E300
7F00
FE00
C000
ENDCHAR
STARTCHAR 00D9
ENCODING 217
SWIDTH 648 0
DWIDTH 9 0
BBX 8 13 1 0
BITMAP
30
30
00
C3
C3
C3
C3
C3
C3
C3
C7
FE
7C
ENDCHAR
STARTCHAR 00DA
ENCODING 218
SWIDTH 648 0
DWIDTH 9 0
BBX 8 13 1 0
BITMAP
0C
18
00
C3
C3
C3
C3
C3
C3
C3
C7
FE
7C
ENDCHAR
STARTCHAR 00DB
ENCODING 219
SWIDTH 648 0
DWIDTH 9 0
BBX 8 13 1 0
BITMAP
18
3C
00
C3
C3
C3
C3
C3
C3
C3
C7
FE
7C
ENDCHAR
STARTCHAR 00DC
ENCODING 220
SWIDTH 648 0
DWIDTH 9 0
BBX 8 13 1 0
BITMAP
66
66
00
C3
C3
C3
C3
C3
C3
C3
C7
FE
7C
ENDCHAR
STARTCHAR 00DD
ENCODING 221
SWIDTH 576 0
DWIDTH 8 0
BBX 9 13 0 0
BITMAP
0600
0C00
0000
C180
6300
6300
3600
3600
1C00
1C00
0800
0800
0800
ENDCHAR
STARTCHAR 00DE
ENCODING 222
SWIDTH 576 0
DWIDTH 8 0
BBX 7 10 1 0
BITMAP
C0
C0
FC
FC
C6
C6
CE
FC
C0
C0
ENDCHAR
STARTCHAR 00DF
ENCODING 223
SWIDTH 576 0
DWIDTH 8 0
BBX 7 10 1 0
BITMAP
78
FC
C4
CC
FC
DC
C6
C6
FC
F8
ENDCHAR
STARTCHAR 00E0
ENCODING 224
SWIDTH 576 0
DWIDTH 8 0
BBX 7 11 1 0
BITMAP
60
20
30
20
F6
CE
C6
86
C6
EE
76
ENDCHAR
STARTCHAR 00E1
ENCODING 225
SWIDTH 576 0
DWIDTH 8 0
BBX 7 11 1 0
BITMAP
08
18
10
20
F6
CE
C6
86
C6
EE
76
ENDCHAR
STARTCHAR 00E2
ENCODING 226
SWIDTH 576 0
DWIDTH 8 0
BBX 7 10 1 0
BITMAP
38
6C
20
F6
CE
C6
86
C6
EE
76
ENDCHAR
STARTCHAR 00E3
ENCODING 227
SWIDTH 576 0
DWIDTH 8 0
BBX 7 10 1 0
BITMAP
78
00
20
F6
CE
C6
86
C6
EE
76
ENDCHAR
STARTCHAR 00E4
ENCODING 228
SWIDTH 576 0
DWIDTH 8 0
BBX 7 11 1 0
BITMAP
4C
6C
00
20
F6
CE
C6
86
C6
EE
76
ENDCHAR
STARTCHAR 00E5
ENCODING 229
SWIDTH 576 0
DWIDTH 8 0
BBX 7 11 1 0
BITMAP
30
28
10
20
F6
CE
C6
86
C6
EE
76
ENDCHAR
STARTCHAR 00E6
ENCODING 230
SWIDTH 864 0
DWIDTH 12 0
BBX 11 8 1 0
BITMAP
0100
FFC0
CE60
0C60
FFE0
CC00
CEE0
F3C0
ENDCHAR
STARTCHAR 00E7
ENCODING 231
SWIDTH 504 0
DWIDTH 7 0
BBX 6 10 1 -2
BITMAP
7C
CC
C0
80
CC
EC
78
20
18
38
ENDCHAR
STARTCHAR 00E8
ENCODING 232
SWIDTH 576 0
DWIDTH 8 0
BBX 6 11 1 0
BITMAP
60
20
30
00
7C
CC
84
FC
C0
EC
78
ENDCHAR
STARTCHAR 00E9
ENCODING 233
SWIDTH 576 0
DWIDTH 8 0
BBX 6 11 1 0
BITMAP
18
18
30
00
7C
CC
84
FC
C0
EC
78
ENDCHAR
STARTCHAR 00EA
ENCODING 234
SWIDTH 576 0
DWIDTH 8 0
BBX 6 10 1 0
BITMAP
38
4C
00
7C
CC
84
FC
C0
EC
78
ENDCHAR
STARTCHAR 00EB
ENCODING 235
SWIDTH 576 0
DWIDTH 8 0
BBX 6 11 1 0
BITMAP
4C
CC
00
00
7C
CC
84
FC
C0
EC
78
ENDCHAR
STARTCHAR 00EC
ENCODING 236
SWIDTH 216 0
DWIDTH 3 0
BBX 3 11 0 0
BITMAP
C0
C0
60
00
60
60
60
60
60
60
60
ENDCHAR
STARTCHAR 00ED
ENCODING 237
SWIDTH 216 0
DWIDTH 3 0
BBX 3 11 1 0
BITMAP
60
40
C0
00
C0
C0
C0
C0
C0
C0
C0
ENDCHAR
STARTCHAR 00EE
ENCODING 238
SWIDTH 216 0
DWIDTH 3 0
BBX 4 10 0 0
BITMAP
F0
90
00
60
60
60
60
60
60
60
ENDCHAR
STARTCHAR 00EF
ENCODING 239
SWIDTH 216 0
DWIDTH 3 0
BBX 6 11 -1 0
BITMAP
4C
CC
00
00
30
30
30
30
30
30
30
ENDCHAR
STARTCHAR 00F0
ENCODING 240
SWIDTH 576 0
DWIDTH 8 0
BBX 8 11 0 0
BITMAP
1E
0E
06
06
7A
67
C7
C2
C6
6E
3C
ENDCHAR
STARTCHAR 00F1
ENCODING 241
SWIDTH 576 0
DWIDTH 8 0
BBX 7 10 1 0
BITMAP
78
00
00
FC
CC
C6
C6
C6
C6
C6
ENDCHAR
STARTCHAR 00F2
ENCODING 242
SWIDTH 576 0
DWIDTH 8 0
BBX 7 11 1 0
BITMAP
60
20
30
00
7C
CC
C6
86
CC
EC
78
ENDCHAR
STARTCHAR 00F3
ENCODING 243
SWIDTH 576 0
DWIDTH 8 0
BBX 7 11 1 0
BITMAP
18
18
30
00
7C
CC
C6
86
CC
EC
78
ENDCHAR
STARTCHAR 00F4
ENCODING 244
SWIDTH 576 0
DWIDTH 8 0
BBX 7 10 1 0
BITMAP
38
4C
00
7C
CC
C6
86
CC
EC
78
ENDCHAR
STARTCHAR 00F5
ENCODING 245
SWIDTH 576 0
DWIDTH 8 0
BBX 7 10 1 0
BITMAP
78
00
00
7C
CC
C6
86
CC
EC
78
ENDCHAR
STARTCHAR 00F6
ENCODING 246
SWIDTH 576 0
DWIDTH 8 0
BBX 7 11 1 0
BITMAP
4C
CC
00
00
7C
CC
C6
86
CC
EC
78
ENDCHAR
STARTCHAR 00F7
ENCODING 247
SWIDTH 576 0
DWIDTH 8 0
BBX 6 7 1 0
BITMAP
30
30
00
FC
00
30
30
ENDCHAR
STARTCHAR 00F8
ENCODING 248
SWIDTH 576 0
DWIDTH 8 0
BBX 7 9 1 -1
BITMAP
04
7C
DC
D6
B6
EC
EC
78
80
ENDCHAR
STARTCHAR 00F9
ENCODING 249
SWIDTH 576 0
DWIDTH 8 0
BBX 6 11 1 0
BITMAP
60
60
30
00
C4
C4
C4
C4
CC
FC
74
ENDCHAR
STARTCHAR 00FA
ENCODING 250
SWIDTH 576 0
DWIDTH 8 0
BBX 6 11 1 0
BITMAP
18
18
30
00
C4
C4
C4
C4
CC
FC
74
ENDCHAR
STARTCHAR 00FB
ENCODING 251
SWIDTH 576 0
DWIDTH 8 0
BBX 6 10 1 0
BITMAP
78
48
00
C4
C4
C4
C4
CC
FC
74
ENDCHAR
STARTCHAR 00FC
ENCODING 252
SWIDTH 576 0
DWIDTH 8 0
BBX 6 11 1 0
BITMAP
4C
CC
00
00
C4
C4
C4
C4
CC
FC
74
ENDCHAR
STARTCHAR 00FD
ENCODING 253
SWIDTH 504 0
DWIDTH 7 0
BBX 6 14 1 -3
BITMAP
18
10
30
00
8C
CC
C8
58
78
70
30
20
60
C0
ENDCHAR
STARTCHAR 00FE
ENCODING 254
SWIDTH 576 0
DWIDTH 8 0
BBX 7 13 1 -3
BITMAP
C0
C0
C0
FC
CE
C6
C6
C6
EE
FC
C0
C0
C0
ENDCHAR
STARTCHAR 00FF
ENCODING 255
SWIDTH 504 0
DWIDTH 7 0
BBX 6 14 1 -3
BITMAP
48
CC
00
00
8C
CC
C8
58
78
70
30
20
60
C0
ENDCHAR
STARTCHAR 0100
ENCODING 256
SWIDTH 648 0
DWIDTH 9 0
BBX 9 12 0 0
BITMAP
3E00
0000
0C00
1C00
1C00
1600
3600
3200
3F00
7F00
6180
C180
ENDCHAR
STARTCHAR 0101
ENCODING 257
SWIDTH 576 0
DWIDTH 8 0
BBX 7 9 1 0
BITMAP
38
20
F6
CE
C6
86
C6
EE
76
ENDCHAR
STARTCHAR 0102
ENCODING 258
SWIDTH 648 0
DWIDTH 9 0
BBX 9 12 0 0
BITMAP
1E00
0000
0C00
1C00
1C00
1600
3600
3200
3F00
7F00
6180
C180
ENDCHAR
STARTCHAR 0103
ENCODING 259
SWIDTH 576 0
DWIDTH 8 0
BBX 7 10 1 0
BITMAP
68
30
20
F6
CE
C6
86
C6
EE
76
ENDCHAR
STARTCHAR 0104
ENCODING 260
SWIDTH 648 0
DWIDTH 9 0
BBX 9 12 0 -2
BITMAP
0C00
1C00
1C00
1600
3600
3200
3F00
7F00
6180
C180
0100
0180
ENDCHAR
STARTCHAR 0105
ENCODING 261
SWIDTH 576 0
DWIDTH 8 0
BBX 7 10 1 -2
BITMAP
20
F6
CE
C6
86
C6
EE
76
04
06
ENDCHAR
STARTCHAR 0106
ENCODING 262
SWIDTH 648 0
DWIDTH 9 0
BBX 8 13 1 0
BITMAP
0C
08
00
3C
7E
C3
C3
C0
C0
C0
C3
7E
3C
ENDCHAR
STARTCHAR 0107
ENCODING 263
SWIDTH 504 0
DWIDTH 7 0
BBX 6 11 1 0
BITMAP
18
18
30
00
7C
CC
C0
80
CC
EC
78
ENDCHAR
STARTCHAR 010A
ENCODING 266
SWIDTH 648 0
DWIDTH 9 0
BBX 8 13 1 0
BITMAP
18
18
00
3C
7E
C3
C3
C0
C0
C0
C3
7E
3C
ENDCHAR
STARTCHAR 010B
ENCODING 267
SWIDTH 504 0
DWIDTH 7 0
BBX 6 11 1 0
BITMAP
30
30
00
00
7C
CC
C0
80
CC
EC
78
ENDCHAR
STARTCHAR 010C
ENCODING 268
SWIDTH 648 0
DWIDTH 9 0
BBX 8 13 1 0
BITMAP
24
38
00
3C
7E
C3
C3
C0
C0
C0
C3
7E
3C
ENDCHAR
STARTCHAR 010D
ENCODING 269
SWIDTH 504 0
DWIDTH 7 0
BBX 6 10 1 0
BITMAP
78
30
00
7C
CC
C0
80
CC
EC
78
ENDCHAR
STARTCHAR 010E
ENCODING 270
SWIDTH 648 0
DWIDTH 9 0
BBX 8 13 1 0
BITMAP
6C
38
00
F8
FE
C6
C3
C3
C3
C3
C6
FE
FC
ENDCHAR
STARTCHAR 010F
ENCODING 271
SWIDTH 720 0
DWIDTH 10 0
BBX 10 11 1 0
BITMAP
01C0
06C0
0640
2680
FE00
CE00
C600
C600
C600
EE00
7600
ENDCHAR
STARTCHAR 0110
ENCODING 272
SWIDTH 648 0
DWIDTH 9 0
BBX 9 10 0 0
BITMAP
7C00
7F00
6380
6180
F980
F980
6180
6180
7F00
7E00
ENDCHAR
STARTCHAR 0111
ENCODING 273
SWIDTH 576 0
DWIDTH 8 0
BBX 8 10 1 0
BITMAP
06
1F
26
FE
CE
C6
C6
C6
EE
76
ENDCHAR
STARTCHAR 0112
ENCODING 274
SWIDTH 504 0
DWIDTH 7 0
BBX 6 12 1 0
BITMAP
78
00
FC
FC
C0
C0
FC
FC
C0
C0
FC
FC
ENDCHAR
STARTCHAR 0113
ENCODING 275
SWIDTH 576 0
DWIDTH 8 0
BBX 6 9 1 0
BITMAP
78
00
7C
CC
84
FC
C0
EC
78
ENDCHAR
STARTCHAR 0116
ENCODING 278
SWIDTH 504 0
DWIDTH 7 0
BBX 6 13 1 0
BITMAP
30
30
00
FC
FC
C0
C0
FC
FC
C0
C0
FC
FC
ENDCHAR
STARTCHAR 0117
ENCODING 279
SWIDTH 576 0
DWIDTH 8 0
BBX 6 11 1 0
BITMAP
30
30
00
00
7C
CC
84
FC
C0
EC
78
ENDCHAR
STARTCHAR 0118
ENCODING 280
SWIDTH 504 0
DWIDTH 7 0
BBX 7 12 1 -2
BITMAP
FC
FC
C0
C0
FC
FC
C0
C0
FC
FC
0C
0E
ENDCHAR
STARTCHAR 0119
ENCODING 281
SWIDTH 576 0
DWIDTH 8 0
BBX 6 9 1 -2
BITMAP
7C
CC
84
FC
C0
EC
78
20
30
ENDCHAR
STARTCHAR 011A
ENCODING 282
SWIDTH 504 0
DWIDTH 7 0
BBX 6 13 1 0
BITMAP
48
78
00
FC
FC
C0
C0
FC
FC
C0
C0
FC
FC
ENDCHAR
STARTCHAR 011B
ENCODING 283
SWIDTH 576 0
DWIDTH 8 0
BBX 6 10 1 0
BITMAP
78
30
00
7C
CC
84
FC
C0
EC
78
ENDCHAR
STARTCHAR 011E
ENCODING 286
SWIDTH 648 0
DWIDTH 9 0
BBX 8 12 1 0
BITMAP
3C
00
3C
7E
C3
C0
C0
CF
C3
C3
77
3D
ENDCHAR
STARTCHAR 011F
ENCODING 287
SWIDTH 576 0
DWIDTH 8 0
BBX 7 13 1 -3
BITMAP
68
30
20
F6
CE
C6
C6
C6
FE
76
06
3C
38
ENDCHAR
STARTCHAR 0120
ENCODING 288
SWIDTH 648 0
DWIDTH 9 0
BBX 8 13 1 0
BITMAP
18
18
00
3C
7E
C3
C0
C0
CF
C3
C3
77
3D
ENDCHAR
STARTCHAR 0121
ENCODING 289
SWIDTH 576 0
DWIDTH 8 0
BBX 7 14 1 -3
BITMAP
10
30
00
20
F6
CE
C6
C6
C6
FE
76
06
3C
38
ENDCHAR
STARTCHAR 0126
ENCODING 294
SWIDTH 648 0
DWIDTH 9 0
BBX 9 10 0 0
BITMAP
6180
6180
FF80
6180
7F80
7F80
6180
6180
6180
6180
ENDCHAR
STARTCHAR 0127
ENCODING 295
SWIDTH 576 0
DWIDTH 8 0
BBX 8 10 0 0
BITMAP
60
F0
64
7E
63
63
63
63
63
63
ENDCHAR
STARTCHAR 0128
ENCODING 296
SWIDTH 216 0
DWIDTH 3 0
BBX 4 13 0 0
BITMAP
D0
F0
00
60
60
60
60
60
60
60
60
60
60
ENDCHAR
STARTCHAR 0129
ENCODING 297
SWIDTH 216 0
DWIDTH 3 0
BBX 4 10 0 0
BITMAP
F0
00
00
60
60
60
60
60
60
60
ENDCHAR
STARTCHAR 012A
ENCODING 298
SWIDTH 216 0
DWIDTH 3 0
BBX 4 12 0 0
BITMAP
F0
00
60
60
60
60
60
60
60
60
60
60
ENDCHAR
STARTCHAR 012B
ENCODING 299
SWIDTH 216 0
DWIDTH 3 0
BBX 4 9 0 0
BITMAP
F0
00
60
60
60
60
60
60
60
ENDCHAR
STARTCHAR 012E
ENCODING 302
SWIDTH 216 0
DWIDTH 3 0
BBX 2 12 1 -2
BITMAP
C0
C0
C0
C0
C0
C0
C0
C0
C0
C0
80
C0
ENDCHAR
STARTCHAR 012F
ENCODING 303
SWIDTH 216 0
DWIDTH 3 0
BBX 2 13 1 -2
BITMAP
C0
C0
00
00
C0
C0
C0
C0
C0
C0
C0
80
C0
ENDCHAR
STARTCHAR 0130
ENCODING 304
SWIDTH 216 0
DWIDTH 3 0
BBX 2 13 1 0
BITMAP
C0
C0
00
C0
C0
C0
C0
C0
C0
C0
C0
C0
C0
ENDCHAR
STARTCHAR 0131
ENCODING 305
SWIDTH 216 0
DWIDTH 3 0
BBX 2 7 1 0
BITMAP
C0
C0
C0
C0
C0
C0
C0
ENDCHAR
STARTCHAR 0139
ENCODING 313
SWIDTH 504 0
DWIDTH 7 0
BBX 6 13 1 0
BITMAP
60
C0
00
C0
C0
C0
C0
C0
C0
C0
C0
FC
FC
ENDCHAR
STARTCHAR 013A
ENCODING 314
SWIDTH 288 0
DWIDTH 4 0
BBX 3 14 1 0
BITMAP
60
40
C0
00
C0
C0
C0
C0
C0
C0
C0
C0
C0
E0
ENDCHAR
STARTCHAR 013D
ENCODING 317
SWIDTH 504 0
DWIDTH 7 0
BBX 8 13 -1 0
BITMAP
D8
70
00
30
30
30
30
30
30
30
30
3F
3F
ENDCHAR
STARTCHAR 013E
ENCODING 318
SWIDTH 360 0
DWIDTH 5 0
BBX 5 11 1 0
BITMAP
38
D8
C8
D0
C0
C0
C0
C0
C0
C0
E0
ENDCHAR
STARTCHAR 0143
ENCODING 323
SWIDTH 648 0
DWIDTH 9 0
BBX 8 13 1 0
BITMAP
0C
08
00
C3
E3
E3
F3
FB
DB
CF
CF
C7
C7
ENDCHAR
STARTCHAR 0144
ENCODING 324
SWIDTH 576 0
DWIDTH 8 0
BBX 7 11 1 0
BITMAP
08
18
10
00
FC
CC
C6
C6
C6
C6
C6
ENDCHAR
STARTCHAR 0147
ENCODING 327
SWIDTH 648 0
DWIDTH 9 0
BBX 8 13 1 0
BITMAP
64
38
00
C3
E3
E3
F3
FB
DB
CF
CF
C7
C7
ENDCHAR
STARTCHAR 0148
ENCODING 328
SWIDTH 576 0
DWIDTH 8 0
BBX 7 10 1 0
BITMAP
78
30
00
FC
CC
C6
C6
C6
C6
C6
ENDCHAR
STARTCHAR 014C
ENCODING 332
SWIDTH 720 0
DWIDTH 10 0
BBX 8 12 1 0
BITMAP
3C
00
3C
7E
C3
C3
C3
C3
C3
C3
7E
3C
ENDCHAR
STARTCHAR 014D
ENCODING 333
SWIDTH 576 0
DWIDTH 8 0
BBX 7 9 1 0
BITMAP
78
00
7C
CC
C6
86
CC
EC
78
ENDCHAR
STARTCHAR 0152
ENCODING 338
SWIDTH 936 0
DWIDTH 13 0
BBX 12 10 1 0
BITMAP
3FF0
7FF0
E600
C600
C7E0
C7E0
C600
C600
7FF0
3FF0
ENDCHAR
STARTCHAR 0153
ENCODING 339
SWIDTH 936 0
DWIDTH 13 0
BBX 12 7 1 1
BITMAP
7BE0
CE60
8630
87F0
CE00
EF60
7BC0
ENDCHAR
STARTCHAR 0154
ENCODING 340
SWIDTH 576 0
DWIDTH 8 0
BBX 7 13 1 0
BITMAP
18
10
00
F8
FC
C6
C6
C6
FC
D8
CC
CC
C6
ENDCHAR
STARTCHAR 0155
ENCODING 341
SWIDTH 360 0
DWIDTH 5 0
BBX 4 11 1 0
BITMAP
30
20
60
00
F0
E0
C0
C0
C0
C0
C0
ENDCHAR
STARTCHAR 0158
ENCODING 344
SWIDTH 576 0
DWIDTH 8 0
BBX 7 13 1 0
BITMAP
48
38
00
F8
FC
C6
C6
C6
FC
D8
CC
CC
C6
ENDCHAR
STARTCHAR 0159
ENCODING 345
SWIDTH 360 0
DWIDTH 5 0
BBX 4 10 1 0
BITMAP
F0
60
00
F0
E0
C0
C0
C0
C0
C0
ENDCHAR
STARTCHAR 015A
ENCODING 346
SWIDTH 576 0
DWIDTH 8 0
BBX 7 13 1 0
BITMAP
0C
18
00
78
FC
CE
C0
F8
3C
06
C6
FE
7C
ENDCHAR
STARTCHAR 015B
ENCODING 347
SWIDTH 432 0
DWIDTH 6 0
BBX 5 11 1 0
BITMAP
18
30
00
20
F8
98
E0
78
08
D8
F8
ENDCHAR
STARTCHAR 015E
ENCODING 350
SWIDTH 576 0
DWIDTH 8 0
BBX 7 13 1 -3
BITMAP
78
FC
CE
C0
F8
3C
06
C6
FE
7C
10
08
38
ENDCHAR
STARTCHAR 015F
ENCODING 351
SWIDTH 432 0
DWIDTH 6 0
BBX 5 11 1 -3
BITMAP
20
F8
98
E0
78
08
D8
F8
20
10
30
ENDCHAR
STARTCHAR 0160
ENCODING 352
SWIDTH 576 0
DWIDTH 8 0
BBX 7 13 1 0
BITMAP
6C
38
00
78
FC
CE
C0
F8
3C
06
C6
FE
7C
ENDCHAR
STARTCHAR 0161
ENCODING 353
SWIDTH 432 0
DWIDTH 6 0
BBX 5 11 1 0
BITMAP
D8
70
20
20
F8
98
E0
78
08
D8
F8
ENDCHAR
STARTCHAR 0162
ENCODING 354
SWIDTH 576 0
DWIDTH 8 0
BBX 7 13 1 -3
BITMAP
FE
FE
30
30
30
30
30
30
30
30
20
18
38
ENDCHAR
STARTCHAR 0163
ENCODING 355
SWIDTH 360 0
DWIDTH 5 0
BBX 5 13 0 -3
BITMAP
30
30
30
F8
30
30
30
30
30
38
10
08
18
ENDCHAR
STARTCHAR 0164
ENCODING 356
SWIDTH 576 0
DWIDTH 8 0
BBX 7 13 1 0
BITMAP
4C
38
00
FE
FE
30
30
30
30
30
30
30
30
ENDCHAR
STARTCHAR 0165
ENCODING 357
SWIDTH 504 0
DWIDTH 7 0
BBX 8 11 0 0
BITMAP
07
37
32
32
F8
30
30
30
30
30
38
ENDCHAR
STARTCHAR 0166
ENCODING 358
SWIDTH 576 0
DWIDTH 8 0
BBX 7 10 1 0
BITMAP
FE
FE
30
30
FC
FC
30
30
30
30
ENDCHAR
STARTCHAR 0167
ENCODING 359
SWIDTH 360 0
DWIDTH 5 0
BBX 5 10 0 0
BITMAP
30
30
30
F8
30
F8
30
30
30
38
ENDCHAR
STARTCHAR 0168
ENCODING 360
SWIDTH 648 0
DWIDTH 9 0
BBX 8 13 1 0
BITMAP
34
3C
00
C3
C3
C3
C3
C3
C3
C3
C7
FE
7C
ENDCHAR
STARTCHAR 0169
ENCODING 361
SWIDTH 576 0
DWIDTH 8 0
BBX 6 10 1 0
BITMAP
78
00
00
C4
C4
C4
C4
CC
FC
74
ENDCHAR
STARTCHAR 016A
ENCODING 362
SWIDTH 648 0
DWIDTH 9 0
BBX 8 12 1 0
BITMAP
3C
00
C3
C3
C3
C3
C3
C3
C3
C7
FE
7C
ENDCHAR
STARTCHAR 016B
ENCODING 363
SWIDTH 576 0
DWIDTH 8 0
BBX 6 9 1 0
BITMAP
78
00
C4
C4
C4
C4
CC
FC
74
ENDCHAR
STARTCHAR 016E
ENCODING 366
SWIDTH 648 0
DWIDTH 9 0
BBX 8 13 1 0
BITMAP
38
18
00
C3
C3
C3
C3
C3
C3
C3
C7
FE
7C
ENDCHAR
STARTCHAR 016F
ENCODING 367
SWIDTH 576 0
DWIDTH 8 0
BBX 6 11 1 0
BITMAP
30
50
30
00
C4
C4
C4
C4
CC
FC
74
ENDCHAR
STARTCHAR 0172
ENCODING 370
SWIDTH 648 0
DWIDTH 9 0
BBX 8 12 1 -2
BITMAP
C3
C3
C3
C3
C3
C3
C3
C7
FE
7C
10
18
ENDCHAR
STARTCHAR 0173
ENCODING 371
SWIDTH 576 0
DWIDTH 8 0
BBX 7 9 1 -2
BITMAP
C4
C4
C4
C4
CC
FC
74
04
0E
ENDCHAR
STARTCHAR 0174
ENCODING 372
SWIDTH 936 0
DWIDTH 13 0
BBX 14 13 0 0
BITMAP
0300
0780
0000
C30C
C318
6718
6798
6798
6D90
3CF0
3CF0
38F0
1860
ENDCHAR
STARTCHAR 0175
ENCODING 373
SWIDTH 792 0
DWIDTH 11 0
BBX 11 10 0 0
BITMAP
0E00
1B00
0000
C660
4E60
6E40
6BC0
2BC0
39C0
3980
ENDCHAR
STARTCHAR 0176
ENCODING 374
SWIDTH 576 0
DWIDTH 8 0
BBX 9 13 0 0
BITMAP
1800
1400
2200
C180
6300
6300
3600
3600
1C00
1C00
0800
0800
0800
ENDCHAR
STARTCHAR 0177
ENCODING 375
SWIDTH 504 0
DWIDTH 7 0
BBX 6 13 1 -3
BITMAP
70
C8
00
8C
CC
C8
58
78
70
30
20
60
C0
ENDCHAR
STARTCHAR 0178
ENCODING 376
SWIDTH 576 0
DWIDTH 8 0
BBX 9 13 0 0
BITMAP
3600
3600
0000
C180
6300
6300
3600
3600
1C00
1C00
0800
0800
0800
ENDCHAR
STARTCHAR 0179
ENCODING 377
SWIDTH 576 0
DWIDTH 8 0
BBX 7 13 1 0
BITMAP
18
18
00
FE
FE
0E
1C
18
30
60
C0
FE
FE
ENDCHAR
STARTCHAR 017A
ENCODING 378
SWIDTH 432 0
DWIDTH 6 0
BBX 5 11 1 0
BITMAP
18
30
20
00
F8
18
30
60
60
F8
F8
ENDCHAR
STARTCHAR 017B
ENCODING 379
SWIDTH 576 0
DWIDTH 8 0
BBX 7 13 1 0
BITMAP
30
30
00
FE
FE
0E
1C
18
30
60
C0
FE
FE
ENDCHAR
STARTCHAR 017C
ENCODING 380
SWIDTH 432 0
DWIDTH 6 0
BBX 5 11 1 0
BITMAP
20
70
00
00
F8
18
30
60
60
F8
F8
ENDCHAR
STARTCHAR 017D
ENCODING 381
SWIDTH 576 0
DWIDTH 8 0
BBX 7 13 1 0
BITMAP
6C
38
00
FE
FE
0E
1C
18
30
60
C0
FE
FE
ENDCHAR
STARTCHAR 017E
ENCODING 382
SWIDTH 432 0
DWIDTH 6 0
BBX 5 10 1 0
BITMAP
D8
30
00
F8
18
30
60
60
F8
F8
ENDCHAR
STARTCHAR 01A0
ENCODING 416
SWIDTH 720 0
DWIDTH 10 0
BBX 8 11 1 0
BITMAP
01
3F
7E
C3
C3
C3
C3
C3
C3
7E
3C
ENDCHAR
STARTCHAR 01A1
ENCODING 417
SWIDTH 576 0
DWIDTH 8 0
BBX 7 9 1 0
BITMAP
02
06
7C
CC
C6
86
CC
EC
78
ENDCHAR
STARTCHAR 01AF
ENCODING 431
SWIDTH 648 0
DWIDTH 9 0
BBX 9 11 1 0
BITMAP
0080
C380
C300
C300
C300
C300
C300
C300
C700
FE00
7C00
ENDCHAR
STARTCHAR 01B0
ENCODING 432
SWIDTH 576 0
DWIDTH 8 0
BBX 8 9 1 0
BITMAP
01
01
C6
C4
C4
C4
CC
FC
74
ENDCHAR
STARTCHAR 02C6
ENCODING 710
SWIDTH 432 0
DWIDTH 6 0
BBX 5 2 1 8
BITMAP
70
98
ENDCHAR
STARTCHAR 02C7
ENCODING 711
SWIDTH 432 0
DWIDTH 6 0
BBX 4 2 1 8
BITMAP
F0
60
ENDCHAR
STARTCHAR 02D8
ENCODING 728
SWIDTH 360 0
DWIDTH 5 0
BBX 4 2 1 8
BITMAP
F0
60
ENDCHAR
STARTCHAR 02D9
ENCODING 729
SWIDTH 144 0
DWIDTH 2 0
BBX 2 2 1 9
BITMAP
80
C0
ENDCHAR
STARTCHAR 02DA
ENCODING 730
SWIDTH 216 0
DWIDTH 3 0
BBX 3 3 0 8
BITMAP
60
A0
40
ENDCHAR
STARTCHAR 02DB
ENCODING 731
SWIDTH 216 0
DWIDTH 3 0
BBX 3 3 0 -3
BITMAP
40
C0
60
ENDCHAR
STARTCHAR 02DC
ENCODING 732
SWIDTH 360 0
DWIDTH 5 0
BBX 4 1 1 9
BITMAP
F0
ENDCHAR
STARTCHAR 0300
ENCODING 768
SWIDTH 0 0
DWIDTH 0 0
BBX 2 2 -3 9
BITMAP
C0
40
ENDCHAR
STARTCHAR 0301
ENCODING 769
SWIDTH 0 0
DWIDTH 0 0
BBX 3 2 -3 9
BITMAP
60
C0
ENDCHAR
STARTCHAR 0302
ENCODING 770
SWIDTH 0 0
DWIDTH 0 0
BBX 5 2 -5 8
BITMAP
70
D8
ENDCHAR
STARTCHAR 0303
ENCODING 771
SWIDTH 0 0
DWIDTH 0 0
BBX 5 1 -5 9
BITMAP
F8
ENDCHAR
STARTCHAR 0304
ENCODING 772
SWIDTH 0 0
DWIDTH 0 0
BBX 5 1 -6 9
BITMAP
F8
ENDCHAR
STARTCHAR 0306
ENCODING 774
SWIDTH 0 0
DWIDTH 0 0
BBX 4 2 -5 8
BITMAP
D0
60
ENDCHAR
STARTCHAR 0307
ENCODING 775
SWIDTH 0 0
DWIDTH 0 0
BBX 2 2 -3 9
BITMAP
C0
C0
ENDCHAR
STARTCHAR 0308
ENCODING 776
SWIDTH 0 0
DWIDTH 0 0
BBX 5 2 -6 9
BITMAP
98
D8
ENDCHAR
STARTCHAR 0309
ENCODING 777
SWIDTH 0 0
DWIDTH 0 0
BBX 3 2 -4 9
BITMAP
E0
20
ENDCHAR
STARTCHAR 030A
ENCODING 778
SWIDTH 0 0
DWIDTH 0 0
BBX 2 3 -3 8
BITMAP
C0
C0
C0
ENDCHAR
STARTCHAR 030C
ENCODING 780
SWIDTH 0 0
DWIDTH 0 0
BBX 4 2 -5 8
BITMAP
F0
60
ENDCHAR
STARTCHAR 031B
ENCODING 795
SWIDTH 0 0
DWIDTH 0 0
BBX 3 3 -3 8
BITMAP
60
60
C0
ENDCHAR
STARTCHAR 0323
ENCODING 803
SWIDTH 0 0
DWIDTH 0 0
BBX 2 2 -2 -3
BITMAP
80
C0
ENDCHAR
STARTCHAR 0327
ENCODING 807
SWIDTH 0 0
DWIDTH 0 0
BBX 3 3 -3 -3
BITMAP
80
60
C0
ENDCHAR
STARTCHAR 0328
ENCODING 808
SWIDTH 0 0
DWIDTH 0 0
BBX 2 3 -3 -3
BITMAP
C0
80
C0
ENDCHAR
STARTCHAR 1E80
ENCODING 7808
SWIDTH 936 0
DWIDTH 13 0
BBX 14 13 0 0
BITMAP
0600
0200
0000
C30C
C318
6718
6798
6798
6D90
3CF0
3CF0
38F0
1860
ENDCHAR
STARTCHAR 1E81
ENCODING 7809
SWIDTH 792 0
DWIDTH 11 0
BBX 11 11 0 0
BITMAP
0800
0C00
0400
0000
C660
4E60
6E40
6BC0
2BC0
39C0
3980
ENDCHAR
STARTCHAR 1E82
ENCODING 7810
SWIDTH 936 0
DWIDTH 13 0
BBX 14 13 0 0
BITMAP
0180
0100
0000
C30C
C318
6718
6798
6798
6D90
3CF0
3CF0
38F0
1860
ENDCHAR
STARTCHAR 1E83
ENCODING 7811
SWIDTH 792 0
DWIDTH 11 0
BBX 11 11 0 0
BITMAP
0300
0200
0600
0000
C660
4E60
6E40
6BC0
2BC0
39C0
3980
ENDCHAR
STARTCHAR 1E84
ENCODING 7812
SWIDTH 936 0
DWIDTH 13 0
BBX 14 13 0 0
BITMAP
0CC0
0CC0
0000
C30C
C318
6718
6798
6798
6D90
3CF0
3CF0
38F0
1860
ENDCHAR
STARTCHAR 1E85
ENCODING 7813
SWIDTH 792 0
DWIDTH 11 0
BBX 11 11 0 0
BITMAP
1900
1980
0000
0000
C660
4E60
6E40
6BC0
2BC0
39C0
3980
ENDCHAR
STARTCHAR 1EA0
ENCODING 7840
SWIDTH 648 0
DWIDTH 9 0
BBX 9 13 0 -3
BITMAP
0C00
1C00
1C00
1600
3600
3200
3F00
7F00
6180
C180
0000
0800
0C00
ENDCHAR
STARTCHAR 1EA1
ENCODING 7841
SWIDTH 576 0
DWIDTH 8 0
BBX 7 11 1 -3
BITMAP
20
F6
CE
C6
86
C6
EE
76
00
10
30
ENDCHAR
STARTCHAR 1EA2
ENCODING 7842
SWIDTH 648 0
DWIDTH 9 0
BBX 9 14 0 0
BITMAP
0C00
1400
0400
0800
0C00
1C00
1C00
1600
3600
3200
3F00
7F00
6180
C180
ENDCHAR
STARTCHAR 1EA3
ENCODING 7843
SWIDTH 576 0
DWIDTH 8 0
BBX 7 11 1 0
BITMAP
38
08
10
20
F6
CE
C6
86
C6
EE
76
ENDCHAR
STARTCHAR 1EA4
ENCODING 7844
SWIDTH 648 0
DWIDTH 9 0
BBX 9 15 0 0
BITMAP
0080
0180
0D00
1E00
0000
0C00
1C00
1C00
1600
3600
3200
3F00
7F00
6180
C180
ENDCHAR
STARTCHAR 1EA5
ENCODING 7845
SWIDTH 576 0
DWIDTH 8 0
BBX 8 13 1 0
BITMAP
03
03
06
38
6C
20
F6
CE
C6
86
C6
EE
76
ENDCHAR
STARTCHAR 1EA6
ENCODING 7846
SWIDTH 648 0
DWIDTH 9 0
BBX 9 15 0 0
BITMAP
0600
0300
0D00
1E00
0000
0C00
1C00
1C00
1600
3600
3200
3F00
7F00
6180
C180
ENDCHAR
STARTCHAR 1EA7
ENCODING 7847
SWIDTH 576 0
DWIDTH 8 0
BBX 7 13 1 0
BITMAP
0C
0C
06
38
6C
20
F6
CE
C6
86
C6
EE
76
ENDCHAR
STARTCHAR 1EA8
ENCODING 7848
SWIDTH 648 0
DWIDTH 9 0
BBX 9 15 0 0
BITMAP
0380
0080
0D00
1E00
0000
0C00
1C00
1C00
1600
3600
3200
3F00
7F00
6180
C180
ENDCHAR
STARTCHAR 1EA9
ENCODING 7849
SWIDTH 576 0
DWIDTH 8 0
BBX 8 13 1 0
BITMAP
0E
03
06
38
6C
20
F6
CE
C6
86
C6
EE
76
ENDCHAR
STARTCHAR 1EAA
ENCODING 7850
SWIDTH 648 0
DWIDTH 9 0
BBX 9 15 0 0
BITMAP
1E00
2400
0C00
1E00
2000
0C00
1C00
1C00
1600
3600
3200
3F00
7F00
6180
C180
ENDCHAR
STARTCHAR 1EAB
ENCODING 7851
SWIDTH 576 0
DWIDTH 8 0
BBX 7 13 1 0
BITMAP
28
58
00
38
6C
20
F6
CE
C6
86
C6
EE
76
ENDCHAR
STARTCHAR 1EAC
ENCODING 7852
SWIDTH 648 0
DWIDTH 9 0
BBX 9 16 0 -3
BITMAP
0C00
1E00
0000
0C00
1C00
1C00
1600
3600
3200
3F00
7F00
6180
C180
0000
0800
0C00
ENDCHAR
STARTCHAR 1EAD
ENCODING 7853
SWIDTH 576 0
DWIDTH 8 0
BBX 7 13 1 -3
BITMAP
38
6C
20
F6
CE
C6
86
C6
EE
76
00
10
30
ENDCHAR
STARTCHAR 1EAE
ENCODING 7854
SWIDTH 648 0
DWIDTH 9 0
BBX 9 16 0 0
BITMAP
0600
0400
0C00
0000
1E00
0000
0C00
1C00
1C00
1600
3600
3200
3F00
7F00
6180
C180
ENDCHAR
STARTCHAR 1EAF
ENCODING 7855
SWIDTH 576 0
DWIDTH 8 0
BBX 7 13 1 0
BITMAP
18
18
00
68
30
20
F6
CE
C6
86
C6
EE
76
ENDCHAR
STARTCHAR 1EB0
ENCODING 7856
SWIDTH 648 0
DWIDTH 9 0
BBX 9 16 0 0
BITMAP
3000
1800
0800
0000
1E00
0000
0C00
1C00
1C00
1600
3600
3200
3F00
7F00
6180
C180
ENDCHAR
STARTCHAR 1EB1
ENCODING 7857
SWIDTH 576 0
DWIDTH 8 0
BBX 7 13 1 0
BITMAP
60
30
00
6C
30
20
F6
CE
C6
86
C6
EE
76
ENDCHAR
STARTCHAR 1EB2
ENCODING 7858
SWIDTH 648 0
DWIDTH 9 0
BBX 9 16 0 0
BITMAP
1C00
1400
0C00
0000
1E00
0000
0C00
1C00
1C00
1600
3600
3200
3F00
7F00
6180
C180
ENDCHAR
STARTCHAR 1EB3
ENCODING 7859
SWIDTH 576 0
DWIDTH 8 0
BBX 7 14 1 0
BITMAP
10
38
18
00
68
30
20
F6
CE
C6
86
C6
EE
76
ENDCHAR
STARTCHAR 1EB4
ENCODING 7860
SWIDTH 648 0
DWIDTH 9 0
BBX 9 15 0 0
BITMAP
1A00
2400
0000
1E00
0000
0C00
1C00
1C00
1600
3600
3200
3F00
7F00
6180
C180
ENDCHAR
STARTCHAR 1EB5
ENCODING 7861
SWIDTH 576 0
DWIDTH 8 0
BBX 7 13 1 0
BITMAP
28
78
00
68
30
20
F6
CE
C6
86
C6
EE
76
ENDCHAR
STARTCHAR 1EB6
ENCODING 7862
SWIDTH 648 0
DWIDTH 9 0
BBX 9 15 0 -3
BITMAP
1E00
0000
0C00
1C00
1C00
1600
3600
3200
3F00
7F00
6180
C180
0000
0800
0C00
ENDCHAR
STARTCHAR 1EB7
ENCODING 7863
SWIDTH 576 0
DWIDTH 8 0
BBX 7 13 1 -3
BITMAP
68
30
20
F6
CE
C6
86
C6
EE
76
00
10
30
ENDCHAR
STARTCHAR 1EB8
ENCODING 7864
SWIDTH 504 0
DWIDTH 7 0
BBX 6 13 1 -3
BITMAP
FC
FC
C0
C0
FC
FC
C0
C0
FC
FC
00
30
30
ENDCHAR
STARTCHAR 1EB9
ENCODING 7865
SWIDTH 576 0
DWIDTH 8 0
BBX 6 10 1 -2
BITMAP
7C
CC
84
FC
C0
EC
78
00
10
30
ENDCHAR
STARTCHAR 1EBA
ENCODING 7866
SWIDTH 504 0
DWIDTH 7 0
BBX 6 14 1 0
BITMAP
30
78
10
00
FC
FC
C0
C0
FC
FC
C0
C0
FC
FC
ENDCHAR
STARTCHAR 1EBB
ENCODING 7867
SWIDTH 576 0
DWIDTH 8 0
BBX 6 11 1 0
BITMAP
78
08
30
00
7C
CC
84
FC
C0
EC
78
ENDCHAR
STARTCHAR 1EBC
ENCODING 7868
SWIDTH 504 0
DWIDTH 7 0
BBX 6 13 1 0
BITMAP
68
78
00
FC
FC
C0
C0
FC
FC
C0
C0
FC
FC
ENDCHAR
STARTCHAR 1EBD
ENCODING 7869
SWIDTH 576 0
DWIDTH 8 0
BBX 6 10 1 0
BITMAP
78
00
00
7C
CC
84
FC
C0
EC
78
ENDCHAR
STARTCHAR 1EBE
ENCODING 7870
SWIDTH 504 0
DWIDTH 7 0
BBX 8 15 1 0
BITMAP
03
06
34
78
00
FC
FC
C0
C0
FC
FC
C0
C0
FC
FC
ENDCHAR
STARTCHAR 1EBF
ENCODING 7871
SWIDTH 576 0
DWIDTH 8 0
BBX 8 13 1 0
BITMAP
03
02
06
38
4C
00
7C
CC
84
FC
C0
EC
78
ENDCHAR
STARTCHAR 1EC0
ENCODING 7872
SWIDTH 504 0
DWIDTH 7 0
BBX 6 15 1 0
BITMAP
08
0C
34
78
00
FC
FC
C0
C0
FC
FC
C0
C0
FC
FC
ENDCHAR
STARTCHAR 1EC1
ENCODING 7873
SWIDTH 576 0
DWIDTH 8 0
BBX 6 13 1 0
BITMAP
18
0C
04
38
4C
00
7C
CC
84
FC
C0
EC
78
ENDCHAR
STARTCHAR 1EC2
ENCODING 7874
SWIDTH 504 0
DWIDTH 7 0
BBX 7 15 1 0
BITMAP
0E
02
34
78
00
FC
FC
C0
C0
FC
FC
C0
C0
FC
FC
ENDCHAR
STARTCHAR 1EC3
ENCODING 7875
SWIDTH 576 0
DWIDTH 8 0
BBX 7 13 1 0
BITMAP
0E
02
06
38
4C
00
7C
CC
84
FC
C0
EC
78
ENDCHAR
STARTCHAR 1EC4
ENCODING 7876
SWIDTH 504 0
DWIDTH 7 0
BBX 6 15 1 0
BITMAP
78
50
30
78
00
FC
FC
C0
C0
FC
FC
C0
C0
FC
FC
ENDCHAR
STARTCHAR 1EC5
ENCODING 7877
SWIDTH 576 0
DWIDTH 8 0
BBX 6 13 1 0
BITMAP
68
58
00
38
4C
00
7C
CC
84
FC
C0
EC
78
ENDCHAR
STARTCHAR 1EC6
ENCODING 7878
SWIDTH 504 0
DWIDTH 7 0
BBX 6 16 1 -3
BITMAP
30
78
00
FC
FC
C0
C0
FC
FC
C0
C0
FC
FC
00
30
30
ENDCHAR
STARTCHAR 1EC7
ENCODING 7879
SWIDTH 576 0
DWIDTH 8 0
BBX 6 13 1 -3
BITMAP
38
4C
00
7C
CC
84
FC
C0
EC
78
00
10
30
ENDCHAR
STARTCHAR 1EC8
ENCODING 7880
SWIDTH 216 0
DWIDTH 3 0
BBX 4 14 0 0
BITMAP
60
F0
20
00
60
60
60
60
60
60
60
60
60
60
ENDCHAR
STARTCHAR 1EC9
ENCODING 7881
SWIDTH 216 0
DWIDTH 3 0
BBX 4 11 0 0
BITMAP
F0
30
60
00
60
60
60
60
60
60
60
ENDCHAR
STARTCHAR 1ECA
ENCODING 7882
SWIDTH 216 0
DWIDTH 3 0
BBX 2 13 1 -3
BITMAP
C0
C0
C0
C0
C0
C0
C0
C0
C0
C0
00
80
C0
ENDCHAR
STARTCHAR 1ECB
ENCODING 7883
SWIDTH 216 0
DWIDTH 3 0
BBX 2 14 1 -3
BITMAP
C0
C0
00
00
C0
C0
C0
C0
C0
C0
C0
00
C0
C0
ENDCHAR
STARTCHAR 1ECC
ENCODING 7884
SWIDTH 720 0
DWIDTH 10 0
BBX 8 13 1 -3
BITMAP
3C
7E
C3
C3
C3
C3
C3
C3
7E
3C
00
08
18
ENDCHAR
STARTCHAR 1ECD
ENCODING 7885
SWIDTH 576 0
DWIDTH 8 0
BBX 7 10 1 -2
BITMAP
7C
CC
C6
86
CC
EC
78
00
10
30
ENDCHAR
STARTCHAR 1ECE
ENCODING 7886
SWIDTH 720 0
DWIDTH 10 0
BBX 8 14 1 0
BITMAP
18
3C
0C
00
3C
7E
C3
C3
C3
C3
C3
C3
7E
3C
ENDCHAR
STARTCHAR 1ECF
ENCODING 7887
SWIDTH 576 0
DWIDTH 8 0
BBX 7 11 1 0
BITMAP
78
18
30
00
7C
CC
C6
86
CC
EC
78
ENDCHAR
STARTCHAR 1ED0
ENCODING 7888
SWIDTH 720 0
DWIDTH 10 0
BBX 9 15 1 0
BITMAP
0180
0300
1A00
3C00
0000
3C00
7E00
C300
C300
C300
C300
C300
C300
7E00
3C00
ENDCHAR
STARTCHAR 1ED1
ENCODING 7889
SWIDTH 576 0
DWIDTH 8 0
BBX 8 13 1 0
BITMAP
03
02
06
38
4C
00
7C
CC
C6
86
CC
EC
78
ENDCHAR
STARTCHAR 1ED2
ENCODING 7890
SWIDTH 720 0
DWIDTH 10 0
BBX 8 15 1 0
BITMAP
04
06
1B
3C
00
3C
7E
C3
C3
C3
C3
C3
C3
7E
3C
ENDCHAR
STARTCHAR 1ED3
ENCODING 7891
SWIDTH 576 0
DWIDTH 8 0
BBX 7 13 1 0
BITMAP
18
0C
04
38
4C
00
7C
CC
C6
86
CC
EC
78
ENDCHAR
STARTCHAR 1ED4
ENCODING 7892
SWIDTH 720 0
DWIDTH 10 0
BBX 8 15 1 0
BITMAP
07
01
1A
3C
00
3C
7E
C3
C3
C3
C3
C3
C3
7E
3C
ENDCHAR
STARTCHAR 1ED5
ENCODING 7893
SWIDTH 576 0
DWIDTH 8 0
BBX 7 13 1 0
BITMAP
0E
02
06
38
4C
00
7C
CC
C6
86
CC
EC
78
ENDCHAR
STARTCHAR 1ED6
ENCODING 7894
SWIDTH 720 0
DWIDTH 10 0
BBX 8 15 1 0
BITMAP
3C
28
18
3C
00
3C
7E
C3
C3
C3
C3
C3
C3
7E
3C
ENDCHAR
STARTCHAR 1ED7
ENCODING 7895
SWIDTH 576 0
DWIDTH 8 0
BBX 7 13 1 0
BITMAP
68
58
00
38
4C
00
7C
CC
C6
86
CC
EC
78
ENDCHAR
STARTCHAR 1ED8
ENCODING 7896
SWIDTH 720 0
DWIDTH 10 0
BBX 8 16 1 -3
BITMAP
18
3C
00
3C
7E
C3
C3
C3
C3
C3
C3
7E
3C
00
08
18
ENDCHAR
STARTCHAR 1ED9
ENCODING 7897
SWIDTH 576 0
DWIDTH 8 0
BBX 7 13 1 -3
BITMAP
38
4C
00
7C
CC
C6
86
CC
EC
78
00
10
30
ENDCHAR
STARTCHAR 1EDA
ENCODING 7898
SWIDTH 720 0
DWIDTH 10 0
BBX 8 13 1 0
BITMAP
0C
08
01
3F
7E
C3
C3
C3
C3
C3
C3
7E
3C
ENDCHAR
STARTCHAR 1EDB
ENCODING 7899
SWIDTH 576 0
DWIDTH 8 0
BBX 7 11 1 0
BITMAP
18
18
32
06
7C
CC
C6
86
CC
EC
78
ENDCHAR
STARTCHAR 1EDC
ENCODING 7900
SWIDTH 720 0
DWIDTH 10 0
BBX 8 13 1 0
BITMAP
30
10
01
3F
7E
C3
C3
C3
C3
C3
C3
7E
3C
ENDCHAR
STARTCHAR 1EDD
ENCODING 7901
SWIDTH 576 0
DWIDTH 8 0
BBX 7 11 1 0
BITMAP
60
20
32
06
7C
CC
C6
86
CC
EC
78
ENDCHAR
STARTCHAR 1EDE
ENCODING 7902
SWIDTH 720 0
DWIDTH 10 0
BBX 8 14 1 0
BITMAP
18
3C
0C
01
3F
7E
C3
C3
C3
C3
C3
C3
7E
3C
ENDCHAR
STARTCHAR 1EDF
ENCODING 7903
SWIDTH 576 0
DWIDTH 8 0
BBX 7 11 1 0
BITMAP
78
18
32
06
7C
CC
C6
86
CC
EC
78
ENDCHAR
STARTCHAR 1EE0
ENCODING 7904
SWIDTH 720 0
DWIDTH 10 0
BBX 8 13 1 0
BITMAP
34
3C
01
3F
7E
C3
C3
C3
C3
C3
C3
7E
3C
ENDCHAR
STARTCHAR 1EE1
ENCODING 7905
SWIDTH 576 0
DWIDTH 8 0
BBX 7 10 1 0
BITMAP
78
02
06
7C
CC
C6
86
CC
EC
78
ENDCHAR
STARTCHAR 1EE2
ENCODING 7906
SWIDTH 720 0
DWIDTH 10 0
BBX 8 14 1 -3
BITMAP
01
3F
7E
C3
C3
C3
C3
C3
C3
7E
3C
00
08
18
ENDCHAR
STARTCHAR 1EE3
ENCODING 7907
SWIDTH 576 0
DWIDTH 8 0
BBX 7 12 1 -3
BITMAP
02
06
7C
CC
C6
86
CC
EC
78
00
10
30
ENDCHAR
STARTCHAR 1EE4
ENCODING 7908
SWIDTH 648 0
DWIDTH 9 0
BBX 8 13 1 -3
BITMAP
C3
C3
C3
C3
C3
C3
C3
C7
FE
7C
00
10
18
ENDCHAR
STARTCHAR 1EE5
ENCODING 7909
SWIDTH 576 0
DWIDTH 8 0
BBX 6 10 1 -3
BITMAP
C4
C4
C4
C4
CC
FC
74
00
10
30
ENDCHAR
STARTCHAR 1EE6
ENCODING 7910
SWIDTH 648 0
DWIDTH 9 0
BBX 8 14 1 0
BITMAP
18
28
08
10
C3
C3
C3
C3
C3
C3
C3
C7
FE
7C
ENDCHAR
STARTCHAR 1EE7
ENCODING 7911
SWIDTH 576 0
DWIDTH 8 0
BBX 6 11 1 0
BITMAP
78
18
30
00
C4
C4
C4
C4
CC
FC
74
ENDCHAR
STARTCHAR 1EE8
ENCODING 7912
SWIDTH 648 0
DWIDTH 9 0
BBX 9 13 1 0
BITMAP
0C00
1800
0080
C380
C300
C300
C300
C300
C300
C300
C700
FE00
7C00
ENDCHAR
STARTCHAR 1EE9
ENCODING 7913
SWIDTH 576 0
DWIDTH 8 0
BBX 8 11 1 0
BITMAP
18
18
31
01
C6
C4
C4
C4
CC
FC
74
ENDCHAR
STARTCHAR 1EEA
ENCODING 7914
SWIDTH 648 0
DWIDTH 9 0
BBX 9 13 1 0
BITMAP
3000
3000
0080
C380
C300
C300
C300
C300
C300
C300
C700
FE00
7C00
ENDCHAR
STARTCHAR 1EEB
ENCODING 7915
SWIDTH 576 0
DWIDTH 8 0
BBX 8 11 1 0
BITMAP
60
60
31
01
C6
C4
C4
C4
CC
FC
74
ENDCHAR
STARTCHAR 1EEC
ENCODING 7916
SWIDTH 648 0
DWIDTH 9 0
BBX 9 14 1 0
BITMAP
1800
2800
0800
1080
C380
C300
C300
C300
C300
C300
C300
C700
FE00
7C00
ENDCHAR
STARTCHAR 1EED
ENCODING 7917
SWIDTH 576 0
DWIDTH 8 0
BBX 8 11 1 0
BITMAP
78
18
31
01
C6
C4
C4
C4
CC
FC
74
ENDCHAR
STARTCHAR 1EEE
ENCODING 7918
SWIDTH 648 0
DWIDTH 9 0
BBX 9 13 1 0
BITMAP
3400
3C00
0080
C380
C300
C300
C300
C300
C300
C300
C700
FE00
7C00
ENDCHAR
STARTCHAR 1EEF
ENCODING 7919
SWIDTH 576 0
DWIDTH 8 0
BBX 8 10 1 0
BITMAP
78
01
01
C6
C4
C4
C4
CC
FC
74
ENDCHAR
STARTCHAR 1EF0
ENCODING 7920
SWIDTH 648 0
DWIDTH 9 0
BBX 9 14 1 -3
BITMAP
0080
C380
C300
C300
C300
C300
C300
C300
C700
FE00
7C00
0000
1000
1800
ENDCHAR
STARTCHAR 1EF1
ENCODING 7921
SWIDTH 576 0
DWIDTH 8 0
BBX 8 12 1 -3
BITMAP
01
01
C6
C4
C4
C4
CC
FC
74
00
10
30
ENDCHAR
STARTCHAR 1EF2
ENCODING 7922
SWIDTH 576 0
DWIDTH 8 0
BBX 9 13 0 0
BITMAP
3000
1800
0000
C180
6300
6300
3600
3600
1C00
1C00
0800
0800
0800
ENDCHAR
STARTCHAR 1EF3
ENCODING 7923
SWIDTH 504 0
DWIDTH 7 0
BBX 6 14 1 -3
BITMAP
60
60
30
00
8C
CC
C8
58
78
70
30
20
60
C0
ENDCHAR
STARTCHAR 1EF4
ENCODING 7924
SWIDTH 576 0
DWIDTH 8 0
BBX 9 13 0 -3
BITMAP
C180
6300
6300
3600
3600
1C00
1C00
0800
0800
0800
0000
0800
1800
ENDCHAR
STARTCHAR 1EF5
ENCODING 7925
SWIDTH 504 0
DWIDTH 7 0
BBX 6 10 1 -3
BITMAP
8C
CC
C8
58
78
70
30
20
64
CC
ENDCHAR
STARTCHAR 1EF6
ENCODING 7926
SWIDTH 576 0
DWIDTH 8 0
BBX 9 14 0 0
BITMAP
0800
1400
0400
0800
C180
6300
6300
3600
3600
1C00
1C00
0800
0800
0800
ENDCHAR
STARTCHAR 1EF7
ENCODING 7927
SWIDTH 504 0
DWIDTH 7 0
BBX 6 14 1 -3
BITMAP
70
18
30
00
8C
CC
C8
58
78
70
30
20
60
C0
ENDCHAR
STARTCHAR 1EF8
ENCODING 7928
SWIDTH 576 0
DWIDTH 8 0
BBX 9 13 0 0
BITMAP
1A00
2C00
0000
C180
6300
6300
3600
3600
1C00
1C00
0800
0800
0800
ENDCHAR
STARTCHAR 1EF9
ENCODING 7929
SWIDTH 504 0
DWIDTH 7 0
BBX 6 13 1 -3
BITMAP
78
00
00
8C
CC
C8
58
78
70
30
20
60
C0
ENDCHAR
STARTCHAR 2013
ENCODING 8211
SWIDTH 576 0
DWIDTH 8 0
BBX 7 1 1 4
BITMAP
FE
ENDCHAR
STARTCHAR 2014
ENCODING 8212
SWIDTH 720 0
DWIDTH 10 0
BBX 8 1 1 4
BITMAP
FF
ENDCHAR
STARTCHAR 2018
ENCODING 8216
SWIDTH 288 0
DWIDTH 4 0
BBX 2 4 1 7
BITMAP
40
80
C0
C0
ENDCHAR
STARTCHAR 2019
ENCODING 8217
SWIDTH 216 0
DWIDTH 3 0
BBX 2 4 1 7
BITMAP
C0
C0
40
40
ENDCHAR
STARTCHAR 201A
ENCODING 8218
SWIDTH 288 0
DWIDTH 4 0
BBX 2 4 1 -3
BITMAP
C0
C0
40
40
ENDCHAR
STARTCHAR 201C
ENCODING 8220
SWIDTH 504 0
DWIDTH 7 0
BBX 5 4 1 7
BITMAP
48
90
D8
D8
ENDCHAR
STARTCHAR 201D
ENCODING 8221
SWIDTH 504 0
DWIDTH 7 0
BBX 6 4 1 7
BITMAP
C8
DC
44
48
ENDCHAR
STARTCHAR 201E
ENCODING 8222
SWIDTH 504 0
DWIDTH 7 0
BBX 6 4 1 -2
BITMAP
C8
DC
44
48
ENDCHAR
STARTCHAR 2020
ENCODING 8224
SWIDTH 576 0
DWIDTH 8 0
BBX 6 13 1 -3
BITMAP
30
30
30
FC
30
30
30
30
30
30
30
30
30
ENDCHAR
STARTCHAR 2021
ENCODING 8225
SWIDTH 576 0
DWIDTH 8 0
BBX 6 13 1 -3
BITMAP
30
30
30
FC
30
30
30
30
30
FC
FC
30
30
ENDCHAR
STARTCHAR 2022
ENCODING 8226
SWIDTH 432 0
DWIDTH 6 0
BBX 3 4 1 3
BITMAP
40
E0
E0
40
ENDCHAR
STARTCHAR 2026
ENCODING 8230
SWIDTH 864 0
DWIDTH 12 0
BBX 10 2 1 0
BITMAP
CCC0
CCC0
ENDCHAR
STARTCHAR 2030
ENCODING 8240
SWIDTH 1080 0
DWIDTH 15 0
BBX 14 10 1 0
BITMAP
E300
A200
A600
E400
0C00
0800
1B9C
1294
32D4
639C
ENDCHAR
STARTCHAR 2039
ENCODING 8249
SWIDTH 360 0
DWIDTH 5 0
BBX 4 6 1 1
BITMAP
30
40
C0
C0
60
30
ENDCHAR
STARTCHAR 203A
ENCODING 8250
SWIDTH 360 0
DWIDTH 5 0
BBX 4 6 1 1
BITMAP
C0
60
30
60
40
C0
ENDCHAR
STARTCHAR 2044
ENCODING 8260
SWIDTH 504 0
DWIDTH 7 0
BBX 7 10 0 0
BITMAP
06
04
0C
08
18
30
20
60
40
C0
ENDCHAR
STARTCHAR 2070
ENCODING 8304
SWIDTH 288 0
DWIDTH 4 0
BBX 4 6 0 5
BITMAP
20
50
D0
D0
50
60
ENDCHAR
STARTCHAR 2074
ENCODING 8308
SWIDTH 288 0
DWIDTH 4 0
BBX 4 6 0 5
BITMAP
30
30
50
F0
10
10
ENDCHAR
STARTCHAR 2075
ENCODING 8309
SWIDTH 288 0
DWIDTH 4 0
BBX 4 6 0 5
BITMAP
F0
80
B0
50
D0
60
ENDCHAR
STARTCHAR 2076
ENCODING 8310
SWIDTH 288 0
DWIDTH 4 0
BBX 4 6 0 5
BITMAP
20
40
70
90
D0
60
ENDCHAR
STARTCHAR 2077
ENCODING 8311
SWIDTH 288 0
DWIDTH 4 0
BBX 4 6 0 5
BITMAP
F0
10
20
20
60
40
ENDCHAR
STARTCHAR 2078
ENCODING 8312
SWIDTH 288 0
DWIDTH 4 0
BBX 4 6 0 5
BITMAP
60
D0
50
70
D0
60
ENDCHAR
STARTCHAR 2079
ENCODING 8313
SWIDTH 288 0
DWIDTH 4 0
BBX 4 6 0 5
BITMAP
20
D0
D0
70
20
60
ENDCHAR
STARTCHAR 2080
ENCODING 8320
SWIDTH 288 0
DWIDTH 4 0
BBX 4 6 0 -4
BITMAP
70
50
D0
D0
50
20
ENDCHAR
STARTCHAR 2081
ENCODING 8321
SWIDTH 216 0
DWIDTH 3 0
BBX 4 6 0 -4
BITMAP
60
E0
E0
60
60
F0
ENDCHAR
STARTCHAR 2082
ENCODING 8322
SWIDTH 288 0
DWIDTH 4 0
BBX 4 6 0 -4
BITMAP
60
D0
10
20
C0
F0
ENDCHAR
STARTCHAR 2083
ENCODING 8323
SWIDTH 288 0
DWIDTH 4 0
BBX 4 6 0 -4
BITMAP
70
D0
30
10
F0
20
ENDCHAR
STARTCHAR 2084
ENCODING 8324
SWIDTH 288 0
DWIDTH 4 0
BBX 4 6 0 -4
BITMAP
30
30
50
F0
10
10
ENDCHAR
STARTCHAR 2085
ENCODING 8325
SWIDTH 288 0
DWIDTH 4 0
BBX 4 6 0 -4
BITMAP
F0
80
F0
10
F0
20
ENDCHAR
STARTCHAR 2086
ENCODING 8326
SWIDTH 288 0
DWIDTH 4 0
BBX 4 6 0 -4
BITMAP
20
40
70
90
D0
20
ENDCHAR
STARTCHAR 2087
ENCODING 8327
SWIDTH 288 0
DWIDTH 4 0
BBX 4 6 0 -4
BITMAP
F0
10
20
20
60
40
ENDCHAR
STARTCHAR 2088
ENCODING 8328
SWIDTH 288 0
DWIDTH 4 0
BBX 4 6 0 -4
BITMAP
70
D0
70
D0
D0
20
ENDCHAR
STARTCHAR 2089
ENCODING 8329
SWIDTH 288 0
DWIDTH 4 0
BBX 4 6 0 -4
BITMAP
60
D0
D0
70
20
60
ENDCHAR
STARTCHAR 20AB
ENCODING 8363
SWIDTH 576 0
DWIDTH 8 0
BBX 8 11 0 0
BITMAP
0F
0F
3E
7E
66
C6
66
7E
36
00
7E
ENDCHAR
STARTCHAR 20AC
ENCODING 8364
SWIDTH 648 0
DWIDTH 9 0
BBX 9 10 0 0
BITMAP
0C00
3F00
3380
6180
F800
6000
F800
3180
3F00
1E00
ENDCHAR
STARTCHAR 2122
ENCODING 8482
SWIDTH 360 0
DWIDTH 5 0
BBX 5 3 0 7
BITMAP
F8
78
68
ENDCHAR
STARTCHAR 215B
ENCODING 8539
SWIDTH 864 0
DWIDTH 12 0
BBX 12 10 0 0
BITMAP
60C0
E0C0
A180
2100
F300
0670
0650
0C70
0850
1870
ENDCHAR
STARTCHAR 215C
ENCODING 8540
SWIDTH 864 0
DWIDTH 12 0
BBX 11 10 1 0
BITMAP
E180
A100
6300
2600
E600
0CC0
09A0
18C0
3120
31E0
ENDCHAR
STARTCHAR 215D
ENCODING 8541
SWIDTH 864 0
DWIDTH 12 0
BBX 11 10 1 0
BITMAP
E180
8180
E300
2200
E600
0CE0
0CA0
18E0
11A0
30E0
ENDCHAR
STARTCHAR 215E
ENCODING 8542
SWIDTH 864 0
DWIDTH 12 0
BBX 12 10 0 0
BITMAP
F0C0
1080
3180
2300
6300
0670
0450
0C70
1850
1870
ENDCHAR
STARTCHAR 2212
ENCODING 8722
SWIDTH 576 0
DWIDTH 8 0
BBX 6 1 1 4
BITMAP
FC
ENDCHAR
STARTCHAR 2215
ENCODING 8725
SWIDTH 504 0
DWIDTH 7 0
BBX 6 10 1 0
BITMAP
0C
08
18
10
30
20
60
40
C0
80
ENDCHAR
STARTCHAR 2248
ENCODING 8776
SWIDTH 576 0
DWIDTH 8 0
BBX 6 5 1 2
BITMAP
64
F8
00
04
FC
ENDCHAR
STARTCHAR 2260
ENCODING 8800
SWIDTH 720 0
DWIDTH 10 0
BBX 6 8 2 0
BITMAP
0C
FC
FC
30
30
FC
40
C0
ENDCHAR
STARTCHAR 2264
ENCODING 8804
SWIDTH 576 0
DWIDTH 8 0
BBX 7 9 1 0
BITMAP
0C
1C
70
70
3C
0C
00
00
FE
ENDCHAR
STARTCHAR 2265
ENCODING 8805
SWIDTH 576 0
DWIDTH 8 0
BBX 7 9 1 0
BITMAP
40
70
1C
1C
78
60
00
00
FE
ENDCHAR
ENDFONT
